<svg width="487" height="110" viewBox="0 0 487 110" fill="none" xmlns="http://www.w3.org/2000/svg">
<path d="M162.546 84.9633C161.397 84.9633 160.558 84.7112 160.03 84.2085C159.501 83.7055 159.237 82.9059 159.237 81.8111V32.841C159.237 31.7459 159.501 30.9615 160.03 30.4881C160.558 29.9847 161.397 29.7332 162.546 29.7332H181.094C186.779 29.7332 191.595 30.7988 195.54 32.9298C199.517 35.0313 202.515 38.1391 204.535 42.2532C206.585 46.3674 207.61 51.3843 207.61 57.3037C207.61 63.2531 206.585 68.2848 204.535 72.399C202.515 76.5131 199.517 79.6357 195.54 81.7668C191.595 83.8978 186.779 84.9633 181.094 84.9633H162.546ZM181.094 74.6188C185.506 74.6188 188.845 73.1535 191.113 70.2235C193.382 67.2637 194.515 62.9572 194.515 57.3037C194.515 51.6802 193.382 47.4033 191.113 44.4731C188.845 41.5132 185.506 40.0334 181.094 40.0334H172.099V74.6188H181.094ZM226.857 85.6291C222.632 85.6291 219.524 84.5787 217.536 82.4769C215.58 80.3458 214.6 77.5339 214.6 74.0415C214.6 71.4074 215.175 69.0393 216.325 66.9382C217.475 64.8071 219.805 63.0164 223.315 61.5658C226.826 60.1157 231.843 59.3904 238.368 59.3904V56.7711C238.368 55.2319 237.855 54.0924 236.83 53.3527C235.804 52.6126 234.174 52.2424 231.937 52.2424C230.073 52.2424 228.472 52.4351 227.137 52.8197C225.801 53.1748 224.356 53.6633 222.802 54.2847C221.995 54.6401 221.498 54.8176 221.311 54.8176C220.753 54.8176 220.131 54.4182 219.447 53.619C218.795 52.8197 218.22 51.9021 217.723 50.8662C217.226 49.8303 216.978 49.0458 216.978 48.5132C216.978 47.5957 217.66 46.7225 219.028 45.8936C220.426 45.0356 222.336 44.3547 224.76 43.8517C227.184 43.3188 229.871 43.0525 232.822 43.0525C239.035 43.0525 243.556 44.2363 246.383 46.6041C249.211 48.9423 250.625 52.1536 250.625 56.2382V71.0224C250.625 73.4793 250.686 75.3881 250.811 76.7498C250.966 78.1112 251.168 79.4578 251.416 80.79C251.572 81.5889 251.65 82.1511 251.65 82.4769C251.65 83.069 251.059 83.5575 249.879 83.9422C248.729 84.3268 247.408 84.6079 245.917 84.7851C244.426 84.9633 243.23 85.0521 242.329 85.0521C241.366 85.0521 240.667 84.6678 240.232 83.8978C239.828 83.0982 239.502 82.0183 239.253 80.6565C239.222 80.479 239.191 80.3015 239.16 80.1239C239.129 79.9464 239.082 79.7689 239.021 79.591C238.709 80.1535 238.041 80.9084 237.016 81.8555C236.022 82.8027 234.655 83.6759 232.915 84.4745C231.175 85.2444 229.156 85.6291 226.857 85.6291ZM230.912 76.35C232.465 76.35 233.925 75.8914 235.292 74.9738C236.659 74.0267 237.684 72.828 238.368 71.3778V67.0269C230.632 67.0269 226.764 68.9653 226.764 72.8428C226.764 73.8787 227.121 74.7223 227.836 75.3736C228.581 76.0246 229.607 76.35 230.912 76.35ZM278.026 101.701C264.884 101.701 258.314 98.0603 258.314 90.7795C258.314 88.7365 258.951 86.9313 260.224 85.3628C261.529 83.7946 263.409 82.5509 265.863 81.6336L265.91 81.3226C264.792 80.7604 263.922 79.9612 263.3 78.9252C262.679 77.8893 262.368 76.7202 262.368 75.418C262.368 74.0858 262.787 72.8576 263.627 71.7329C264.496 70.6082 265.739 69.6462 267.355 68.847C265.242 67.7223 263.58 66.1833 262.368 64.2298C261.188 62.2763 260.597 59.8937 260.597 57.0818C260.597 52.2871 262.229 48.7499 265.491 46.471C268.783 44.192 273.102 43.0525 278.446 43.0525C280.682 43.0525 282.811 43.2596 284.83 43.6738H298.158C299.028 43.6738 299.666 43.9996 300.069 44.6506C300.473 45.2723 300.675 46.2638 300.675 47.6252V48.9571C300.675 51.4435 300.008 52.6866 298.671 52.6866C298.205 52.6866 297.568 52.657 296.76 52.5978C295.984 52.5386 295.424 52.4647 295.082 52.3759L294.943 52.6866C295.316 53.16 295.626 53.8261 295.875 54.6845C296.123 55.513 296.248 56.3122 296.248 57.0818C296.248 61.7877 294.695 65.2953 291.588 67.6039C288.481 69.8829 284.411 71.0224 279.378 71.0224C275.991 71.0224 274.298 71.7477 274.298 73.1978C274.298 73.8491 274.64 74.3673 275.323 74.7519C276.007 75.107 276.877 75.3881 277.933 75.5955C279.02 75.8026 280.558 76.0246 282.547 76.2613C283.975 76.4096 285.312 76.5871 286.554 76.7942C290.469 77.5339 293.591 78.7477 295.922 80.4346C298.252 82.0922 299.417 84.7112 299.417 88.2934C299.417 90.986 298.531 93.3396 296.76 95.3523C294.99 97.365 292.489 98.9184 289.258 100.014C286.026 101.139 282.282 101.701 278.026 101.701ZM278.446 62.6314C280.279 62.6314 281.77 62.1727 282.92 61.2552C284.101 60.3376 284.69 58.9466 284.69 57.0818C284.69 55.2171 284.101 53.8261 282.92 52.9085C281.77 51.9613 280.279 51.4879 278.446 51.4879C276.612 51.4879 275.106 51.9613 273.925 52.9085C272.776 53.8261 272.201 55.2171 272.201 57.0818C272.201 58.9466 272.776 60.3376 273.925 61.2552C275.106 62.1727 276.612 62.6314 278.446 62.6314ZM278.959 92.4664C281.754 92.4664 283.867 92.1255 285.297 91.4453C286.756 90.7644 287.487 89.8172 287.487 88.6041C287.487 87.7753 287.067 87.1095 286.228 86.6055C285.421 86.1321 284.101 85.7323 282.267 85.4075C280.465 85.1109 277.933 84.8601 274.671 84.6527C273.273 85.1261 272.185 85.7474 271.409 86.5174C270.632 87.2864 270.244 88.0859 270.244 88.9148C270.244 90.0388 270.959 90.9123 272.387 91.5343C273.817 92.1557 276.007 92.4664 278.959 92.4664ZM317.918 85.6291C315.774 85.6291 313.646 85.4075 311.533 84.9633C309.42 84.5192 307.666 83.8827 306.267 83.0539C304.9 82.225 304.217 81.2782 304.217 80.2127C304.217 79.5617 304.465 78.7477 304.963 77.771C305.46 76.7942 306.05 75.9506 306.733 75.2401C307.448 74.5004 308.069 74.1302 308.597 74.1302C308.877 74.1302 309.483 74.3373 310.415 74.7519C311.502 75.2257 312.543 75.6103 313.537 75.9062C314.532 76.2021 315.666 76.35 316.939 76.35C318.523 76.35 319.72 76.0689 320.527 75.5068C321.336 74.9442 321.739 74.1154 321.739 73.0203C321.739 72.1915 321.491 71.511 320.994 70.978C320.527 70.4158 319.922 69.9569 319.176 69.6018C318.43 69.2468 317.374 68.8174 316.007 68.3144L314.656 67.8258C312.885 67.1749 311.331 66.4348 309.995 65.606C308.66 64.7772 307.525 63.5785 306.593 62.01C305.661 60.4115 305.195 58.3989 305.195 55.9719C305.195 53.2787 305.801 50.9698 307.013 49.0458C308.255 47.0927 310.011 45.6126 312.279 44.6062C314.546 43.5703 317.219 43.0525 320.295 43.0525C322.065 43.0525 323.913 43.2152 325.84 43.5407C327.766 43.8665 329.382 44.3695 330.687 45.0504C332.023 45.7309 332.69 46.5893 332.69 47.6252C332.69 48.2174 332.488 49.0162 332.085 50.0226C331.712 51.0289 331.246 51.9169 330.687 52.6866C330.127 53.4562 329.599 53.8409 329.102 53.8409C328.947 53.8409 328.512 53.7077 327.798 53.4414C326.835 53.0564 325.902 52.7605 325.001 52.5534C324.131 52.3164 323.122 52.198 321.972 52.198C319.052 52.198 317.592 53.1156 317.592 54.9508C317.592 55.7796 317.856 56.4901 318.384 57.0818C318.943 57.6739 319.627 58.1621 320.434 58.5471C321.242 58.9318 322.377 59.3904 323.836 59.9233C325.514 60.5743 326.555 60.9889 326.959 61.1664C329.133 62.2023 330.873 63.5785 332.178 65.2953C333.514 66.9822 334.181 69.2468 334.181 72.0879C334.181 74.7815 333.545 77.1493 332.272 79.1915C330.997 81.2338 329.133 82.8172 326.68 83.9422C324.225 85.0666 321.304 85.6291 317.918 85.6291ZM347.744 85.0968C344.449 85.0968 342.802 84.268 342.802 82.6104V32.0862C342.802 31.2278 343.191 30.5916 343.97 30.1771C344.776 29.7332 346.034 29.5113 347.744 29.5113H350.68C352.386 29.5113 353.63 29.7332 354.409 30.1771C355.215 30.5916 355.618 31.2278 355.618 32.0862V51.5767H377.987V32.0862C377.987 31.2278 378.393 30.5916 379.2 30.1771C380.006 29.7332 381.267 29.5113 382.974 29.5113H385.865C389.187 29.5113 390.851 30.3697 390.851 32.0862V82.6104C390.851 84.268 389.187 85.0968 385.865 85.0968H382.974C379.651 85.0968 377.987 84.268 377.987 82.6104V62.01H355.618V82.6104C355.618 84.268 353.974 85.0968 350.68 85.0968H347.744ZM413.686 85.6291C409.523 85.6291 406.447 84.5928 404.46 82.5216C402.469 80.4198 401.475 77.1788 401.475 72.7984V46.0268C401.475 45.1983 401.878 44.5766 402.687 44.1624C403.494 43.7478 404.755 43.5407 406.461 43.5407H408.744C410.454 43.5407 411.712 43.7478 412.518 44.1624C413.328 44.5766 413.731 45.1983 413.731 46.0268V71.0224C413.731 72.6505 414.12 73.8787 414.899 74.7075C415.674 75.5363 416.946 75.9506 418.718 75.9506C420.24 75.9506 421.56 75.492 422.679 74.5744C423.83 73.6272 424.716 72.5617 425.334 71.3778V46.0268C425.334 45.1983 425.741 44.5766 426.547 44.1624C427.357 43.7478 428.615 43.5407 430.321 43.5407H432.604C434.314 43.5407 435.572 43.7478 436.382 44.1624C437.188 44.5766 437.591 45.1983 437.591 46.0268V71.0224C437.591 73.5089 437.653 75.4624 437.778 76.883C437.935 78.274 438.119 79.5765 438.338 80.79C438.494 81.5889 438.571 82.1511 438.571 82.4769C438.571 83.069 437.997 83.5575 436.847 83.9422C435.697 84.3268 434.376 84.6079 432.886 84.7851C431.426 84.9633 430.245 85.0521 429.345 85.0521C428.351 85.0521 427.635 84.6819 427.2 83.9422C426.797 83.1722 426.471 82.0922 426.221 80.7012L425.988 79.591C424.685 81.2782 422.93 82.7136 420.723 83.8978C418.548 85.0521 416.202 85.6291 413.686 85.6291ZM470.868 85.6291C468.411 85.6291 466.204 85.0817 464.248 83.9866C462.291 82.8615 460.815 81.4262 459.821 79.6801L459.588 80.6121C459.31 81.7668 459.091 82.5801 458.938 83.0539C458.719 83.8827 458.236 84.4311 457.492 84.697C456.745 84.9633 455.644 85.0968 454.184 85.0968H453.204C449.879 85.0968 448.218 84.268 448.218 82.6104V28.002C448.218 27.1436 448.621 26.5071 449.43 26.0928C450.237 25.6487 451.495 25.4268 453.204 25.4268H455.487C458.813 25.4268 460.474 26.2852 460.474 28.002V45.4942C462.806 43.8665 465.617 43.0525 468.908 43.0525C472.574 43.0525 475.712 43.9257 478.322 45.6717C480.963 47.3885 482.968 49.8451 484.334 53.0416C485.703 56.2382 486.384 59.9825 486.384 64.2742C486.384 68.7434 485.717 72.5913 484.382 75.8174C483.076 79.014 481.244 81.4557 478.881 83.143C476.553 84.8003 473.881 85.6291 470.868 85.6291ZM467.278 76.0394C471.719 76.0394 473.943 72.1175 473.943 64.2742C473.943 56.253 471.379 52.2424 466.253 52.2424C464.359 52.2424 462.43 52.7458 460.474 53.7521V71.3778C462.368 74.4856 464.637 76.0394 467.278 76.0394Z" fill="white"/>
<path d="M129.03 9.83604V9.55538C129.03 9.37156 129.009 9.10066 128.974 8.74264C128.934 8.28385 128.859 7.82866 128.748 7.38076C128.71 7.24048 128.664 7.09045 128.605 6.92604C128.59 6.88246 128.58 6.85832 128.553 6.78815C128.524 6.71794 128.496 6.65991 128.468 6.60429C128.407 6.493 128.352 6.36241 128.278 6.26561C128.136 6.03118 127.945 5.82716 127.716 5.66654C127.488 5.50582 127.227 5.39187 126.95 5.33192C126.794 5.29944 126.635 5.28162 126.475 5.27869L126.112 5.25452L125.489 5.27631C125.28 5.30048 125.063 5.33437 124.845 5.36581C124.626 5.39728 124.416 5.465 124.198 5.52542C123.337 5.79733 122.531 6.20629 121.813 6.73492C120.368 7.77751 119.175 9.07406 117.913 10.3343C116.676 11.6254 115.337 12.8239 113.906 13.9192C113.191 14.4495 112.441 14.9344 111.659 15.3705C110.896 15.8003 110.1 16.1763 109.278 16.4953C108.88 16.6647 108.465 16.7881 108.066 16.9307L106.736 17.4145L106.084 17.6564L105.467 17.9371L104.269 18.4886C103.887 18.6846 103.527 18.8926 103.169 19.0861C102.811 19.2796 102.458 19.4658 102.153 19.6787C101.849 19.8916 101.521 20.0851 101.219 20.2786C101.069 20.3754 100.916 20.4673 100.777 20.564L100.371 20.8592C99.9032 21.2025 99.4866 21.488 99.1446 21.764L98.2578 22.4896L97.91 22.7751L97.6236 23.0289L97.176 23.4304C95.9135 24.5463 94.8151 25.8186 93.9088 27.2137C93.5154 27.827 93.161 28.4618 92.8472 29.1151C92.695 29.4318 92.5476 29.7559 92.4055 30.0949C92.0423 29.9446 91.6768 29.7946 91.2935 29.6568L89.4374 28.9796C86.7269 28.0438 83.9563 27.2755 81.1422 26.6791C75.4024 25.4669 69.5133 25.0248 63.6453 25.3657C62.9798 25.3923 62.3324 25.4626 61.7028 25.5059C61.3855 25.5278 61.0755 25.5688 60.7711 25.5981L59.9281 25.6875C59.3338 25.7574 58.7803 25.8375 58.2774 25.9027C57.262 26.0527 56.4621 26.1858 55.9238 26.2897C54.2439 26.5853 52.6058 27.0677 51.0438 27.7268C50.1409 28.1141 49.2694 28.5647 48.4361 29.0741L48.2328 29.1198C48.1289 28.6077 47.9951 28.1013 47.8318 27.603C47.2911 26.0076 46.4515 24.5184 45.3537 23.2081C44.8457 22.5824 44.297 21.9876 43.7107 21.4278C43.3399 21.065 42.9111 20.6874 42.4413 20.3004L42.1035 20.0295C41.9767 19.9279 41.8495 19.8287 41.7074 19.7344C41.4332 19.5432 41.1666 19.3376 40.8747 19.1586C40.5825 18.9796 40.293 18.7813 39.9834 18.6119C39.6738 18.4426 39.3662 18.2588 39.0364 18.104L38.5489 17.8621C38.3814 17.7822 38.2111 17.7145 38.0412 17.6396L37.5331 17.417L37.0025 17.221L36.4666 17.0251L35.9158 16.8582L34.8594 16.5365C34.1842 16.3309 33.4885 16.1373 32.8283 15.881C32.4905 15.76 32.1451 15.639 31.8125 15.5157L30.8124 15.0972C29.4721 14.5263 28.1926 13.8346 26.9908 13.0315C25.7705 12.197 24.607 11.2897 23.5072 10.315C22.3799 9.34739 21.2601 8.32904 20.0972 7.3929C18.9342 6.45672 17.7663 5.57145 16.5882 4.79488C15.4633 4.01102 14.2746 3.31384 13.0334 2.70977C12.4426 2.42269 11.8338 2.17065 11.2104 1.95509C10.606 1.74804 9.98304 1.59414 9.34927 1.49542C8.72379 1.39855 8.08755 1.38225 7.45763 1.44714C6.31382 1.56203 5.23961 2.02613 4.39542 2.77029C4.22278 2.92751 4.06028 3.08473 3.91808 3.2395C3.77588 3.39437 3.64387 3.5443 3.53976 3.69184C3.20907 4.1317 2.92822 4.60357 2.70185 5.09968L2.53425 5.4771C2.49616 5.5617 2.48094 5.60524 2.48094 5.60524C2.48094 5.60524 2.40984 5.7819 2.29051 6.11322C2.12844 6.5901 1.99197 7.07455 1.88174 7.56461C1.71605 8.30849 1.59231 9.06021 1.51102 9.81671C1.49323 10.0343 1.46533 10.2545 1.45007 10.4915C1.43485 10.7286 1.42978 10.9753 1.4196 11.2342C1.39576 11.7739 1.40934 12.3145 1.46022 12.8525C1.57684 14.0674 1.84974 15.2641 2.27275 16.4156C2.70693 17.625 3.25793 18.8104 3.79621 20.0198C4.3345 21.2294 4.87028 22.4701 5.34758 23.7666C5.57106 24.4176 5.81226 25.0729 5.99755 25.7504C6.09409 26.089 6.20327 26.4252 6.29463 26.7661L6.5562 27.8041C6.74152 28.4934 6.85832 29.2045 7.00048 29.9109L7.1047 30.4429C7.13768 30.6197 7.15797 30.801 7.18591 30.9778L7.3433 32.0541L7.50833 33.1596C7.57435 33.5466 7.6124 33.936 7.70637 34.3183C7.8003 34.7003 7.85879 35.0826 7.96029 35.4575C8.0619 35.8324 8.16348 36.2073 8.27774 36.5775C8.72977 38.0199 9.31782 39.4206 10.0348 40.7622C10.3826 41.4128 10.7457 42.0466 11.1291 42.6492C11.3144 42.9561 11.5151 43.2467 11.7105 43.5368L12.0051 43.9699L12.2819 44.3495C12.9677 45.296 13.7051 46.2075 14.4908 47.0807C15.1562 47.8305 15.7274 48.4062 16.1083 48.7858C17.2914 49.9733 18.6293 51.0116 20.0896 51.8747C20.5365 52.136 20.9909 52.373 21.4556 52.6007C21.4501 52.6229 21.4459 52.6457 21.4429 52.6683C20.8978 53.8165 20.4413 55.0007 20.0769 56.2122C19.6261 57.7659 19.3352 59.3576 19.2086 60.9655C19.1527 61.6111 19.0561 62.6584 18.9546 64.8355C18.8657 66.7053 18.8378 69.8622 19.0105 72.5521C19.0892 73.897 19.2009 75.1233 19.305 76.0136C19.3532 76.4588 19.404 76.8193 19.4345 77.0684L19.4852 77.4578C19.4852 77.4578 19.5513 77.9197 19.663 78.6672C19.7747 79.4146 19.9651 80.4765 20.219 81.6499C20.473 82.823 20.8031 84.1169 21.1891 85.3576C21.575 86.5993 22.0142 87.7768 22.423 88.7636C22.8943 89.9011 23.4343 91.012 24.0404 92.09C24.274 92.516 24.5025 92.8741 24.6854 93.1858L25.1931 93.9531C26.1165 95.3716 27.2838 96.6325 28.6464 97.6829C29.4019 98.2491 30.214 98.7434 31.0713 99.1583C31.2336 99.4434 31.4115 99.7238 31.6019 99.9928C32.0116 100.558 32.4742 101.088 32.9833 101.574C33.4927 102.049 34.0404 102.485 34.6207 102.879C35.1972 103.259 35.7994 103.602 36.4236 103.906C38.9068 105.099 41.5805 105.665 44.15 105.919C46.6503 106.194 49.1756 106.194 51.6759 105.919C52.8574 105.785 54.0295 105.588 55.1874 105.329C55.7563 105.215 56.3046 105.053 56.8506 104.915C57.3965 104.778 57.9271 104.605 58.44 104.431C59.4353 104.1 60.3798 103.727 61.2764 103.331C61.8317 103.96 62.4509 104.536 63.1248 105.05C64.1767 105.829 65.345 106.454 66.5908 106.903C66.8444 107.003 67.1694 107.116 67.6569 107.276C67.8956 107.361 68.1827 107.438 68.5128 107.532C68.8426 107.627 69.2287 107.724 69.6703 107.83C70.0158 107.922 70.4957 107.997 71.0062 108.098C71.2598 108.142 71.534 108.176 71.8009 108.212L72.1995 108.268L72.5929 108.304L73.3216 108.367C73.5478 108.382 73.7508 108.382 73.9235 108.389L74.4795 108.408H74.6067H74.9517C75.2436 108.408 75.6526 108.408 76.1096 108.374C77.0479 108.32 77.9809 108.204 78.9025 108.028L79.7556 107.859C80.0249 107.798 80.2637 107.724 80.5174 107.663L81.1953 107.484L81.7844 107.29C82.1503 107.165 82.4728 107.068 82.7393 106.962L83.4096 106.693C83.7575 106.559 84.0963 106.406 84.425 106.234C84.7399 106.072 85.037 105.914 85.3188 105.749C85.87 105.416 86.3523 105.068 86.812 104.727C87.2714 104.386 87.6652 103.979 88.0815 103.582C88.2591 103.391 88.437 103.195 88.6146 102.992C90.0511 103.601 91.5277 104.119 93.0352 104.545C95.4482 105.233 97.9357 105.655 100.449 105.803C103.131 105.981 105.825 105.714 108.409 105.01C109.754 104.629 111.036 104.072 112.218 103.352C113.433 102.612 114.493 101.662 115.344 100.552C115.764 99.9901 116.128 99.3923 116.431 98.7662C116.726 98.1432 116.96 97.4953 117.131 96.8312C117.305 96.1796 117.415 95.5139 117.462 94.8424C117.526 94.1888 117.544 93.5304 117.515 92.8741C117.497 92.5426 117.444 92.213 117.411 91.8842L117.35 91.4004L117.243 90.9165C117.164 90.5971 117.111 90.2703 117.012 89.9495C116.913 89.6274 116.806 89.3272 116.702 89.0185C116.653 88.8631 116.595 88.7105 116.524 88.5629L116.326 88.1177L116.131 87.6735C116.063 87.5256 115.978 87.3901 115.903 87.2472C115.747 86.9641 115.597 86.6807 115.435 86.4053L114.91 85.6067C114.205 84.5866 113.405 83.63 112.517 82.7484C112.292 82.506 112.053 82.2814 111.812 82.0608C112.656 81.2693 113.4 80.387 114.031 79.4315C114.946 78.0307 115.643 76.5113 116.1 74.9202C116.649 73.0676 117.055 71.1789 117.314 69.2695C117.367 68.8391 117.444 68.3986 117.479 67.9464C117.515 67.4941 117.56 67.0295 117.601 66.5581C117.646 65.6146 117.703 64.6348 117.68 63.6261C117.667 61.528 117.477 59.4346 117.109 57.3658C116.738 55.3743 116.194 53.4157 115.483 51.5096C115.807 51.3119 116.119 51.097 116.418 50.8664C117.013 50.4 117.562 49.8826 118.058 49.3204C119.155 48.0477 120.058 46.6339 120.742 45.1212C121.151 44.2503 121.917 42.5765 122.925 39.7996C123.865 37.2186 124.845 34.0836 125.706 30.8157C126.566 27.5476 127.318 24.1513 127.869 21.0599C128.42 17.9685 128.775 15.1819 128.922 13.1476C129.017 12.0462 129.053 10.9409 129.03 9.83604Z" stroke="#EAEAEA" stroke-width="2.8169" stroke-miterlimit="10"/>
<path d="M47.9441 29.92C47.9441 29.92 65.7482 21.3934 91.8478 31.1415C91.8478 31.1415 97.6394 21.1708 109.972 17.4238C122.304 13.6769 115.376 10.1041 124.769 6.35716C134.165 2.61017 119.547 44.4265 119.547 44.4265C119.547 44.4265 115.69 51.098 114.281 51.9931C114.281 51.9931 119.572 70.1352 110.894 82.7309C110.894 82.7309 122.456 92.9285 112.095 102.195C107.301 105.132 101.547 105.926 95.6996 104.197L89.3823 102.261C86.7569 103.931 85.0076 107.267 75.3765 107.267C65.7457 107.267 60.4977 102.261 60.4977 102.261C56.4145 105.178 46.4919 106.431 38.6129 103.931C38.6129 103.931 28.1089 97.2589 26.3162 93.529C26.3162 93.529 15.9516 79.4045 21.5681 51.9857C21.5681 51.9857 12.1278 46.693 8.74826 33.6599C5.36864 20.6266 2.49443 16.091 2.51476 13.5608C2.53505 11.0305 3.63702 -1.27706 11.3812 2.64645C19.1255 6.56996 24.1935 15.6096 36.7517 18.4325C44.7043 20.3048 47.9441 29.92 47.9441 29.92Z" fill="#FFFCF0"/>
<path d="M67.0032 26.4906C67.0032 26.4906 71.8098 55.8882 63.8065 70.3268C55.547 74.681 53.6958 73.8875 44.4967 77.7071C35.2975 81.5267 31.7506 89.4144 31.7506 89.4144C31.7506 89.4144 30.2573 97.9584 30.7348 98.3649C31.2123 98.7711 15.0482 86.3429 21.7108 52.0807C21.7108 52.0807 10.5515 44.4926 8.90114 33.7691C7.2507 23.0462 3.55124 16.2101 3.55124 16.2101C3.55124 16.2101 -0.138079 4.96683 7.5884 2.64702C15.3149 0.327278 20.0477 14.0161 32.7253 17.1897C45.403 20.3634 47.5384 29.2844 47.5384 29.2844C47.5384 29.2844 60.2442 26.1809 67.0032 26.4906Z" fill="#666666"/>
<path d="M84.5866 28.7831C84.5866 28.7831 79.2545 49.0345 84.5866 70.3262C84.5866 70.3262 104.305 75.9406 110.966 82.7934C110.966 82.7934 120.926 70.1012 114.348 52.0727C114.348 52.0727 118.516 50.0674 123.534 33.8098C128.551 17.552 128.686 8.42291 126.619 6.5168C124.552 4.61059 116.539 13.3962 116.539 13.3962C116.539 13.3962 113.779 15.8587 105.58 19.2477C97.381 22.6365 91.9426 31.2481 91.9426 31.2481L84.5866 28.7831Z" fill="#666666"/>
<path d="M41.1638 35.3269C41.1638 35.3269 27.3079 10.7068 6.52546 7.15332C6.52546 7.15332 4.39515 8.42334 5.99478 16.5437C7.59441 24.664 8.36122 33.5392 9.75773 36.9402C11.1543 40.3412 16.3847 49.0349 24.3779 53.7304C24.3779 53.7304 32.1044 44.2116 34.2346 40.4041C36.3648 36.5969 41.1638 35.3269 41.1638 35.3269Z" fill="#A05858"/>
<path d="M102.673 36.9403C102.673 36.9403 110.591 42.3079 114.352 52.0805C114.352 52.0805 126.619 39.0955 127.71 9.2651C127.71 9.2651 126.055 5.76723 120.555 12.0952C115.055 18.4231 102.673 36.9403 102.673 36.9403Z" fill="#A05858"/>
<path d="M75.8906 86.101C75.8906 86.101 83.9222 84.4631 84.5901 78.8706C84.5901 78.8706 76.1978 71.6449 67.0059 78.8706C67.0059 78.8706 70.119 86.101 75.8906 86.101Z" fill="#333333"/>
<path opacity="0.1" d="M60.6396 102.549C64.7989 102.21 68.725 100.575 71.8116 97.8974C76.8566 93.4467 80.8939 102.513 88.9276 102.109C88.9276 102.109 81.3103 98.4808 79.2791 95.9671C77.2479 93.4534 75.7245 90.7104 71.8168 94.4726C67.9091 98.2337 63.6358 101.621 60.6396 102.549Z" fill="#333333"/>
<path opacity="0.5" d="M105.049 38.2471C105.049 38.2471 109.591 31.474 114.085 29.0333C114.34 28.8985 114.633 28.8393 114.924 28.8638C115.215 28.888 115.492 28.995 115.719 29.1708C115.946 29.3463 116.112 29.5824 116.197 29.849C116.282 30.1153 116.281 30.4001 116.195 30.666C115.624 32.4777 115.019 34.95 115.18 36.9408C115.18 36.9408 115.346 36.9092 115.601 36.885C115.888 36.8598 116.178 36.9038 116.443 37.0124C116.709 37.1214 116.941 37.2922 117.119 37.5087C117.297 37.7253 117.415 37.9811 117.463 38.2525C117.51 38.5238 117.486 38.8022 117.39 39.0621C116.758 40.7796 115.931 44.2969 116.375 50.3636L114.41 51.5731C114.41 51.5731 110.985 43.0704 105.049 38.2471Z" fill="#331D1D"/>
<path opacity="0.5" d="M37.6455 36.9403C37.6455 36.9403 34.3063 29.4947 24.6453 28.3337C24.3383 28.2997 24.0274 28.3357 23.7379 28.4386C23.4483 28.5412 23.1885 28.7079 22.9796 28.9248C22.7707 29.1417 22.6188 29.4026 22.5363 29.6864C22.4538 29.9701 22.443 30.2684 22.5048 30.5565C22.9567 32.7458 23.5204 35.8203 23.2665 36.9403C22.5763 36.8633 21.8797 36.8518 21.187 36.9063C20.9065 36.9305 20.639 37.0304 20.4158 37.1941C20.1925 37.3575 20.0227 37.5781 19.9261 37.8303C19.8294 38.0825 19.8101 38.3551 19.8701 38.6174C19.9301 38.8797 20.0672 39.1201 20.2653 39.3107C22.5759 41.5531 26.641 46.4345 25.5695 52.2255C25.5695 52.2255 30.8278 46.1154 32.7245 42.9417C34.6215 39.768 37.6455 36.9403 37.6455 36.9403Z" fill="#331D1D"/>
<path opacity="0.3" d="M94.7889 27.4775C94.7889 27.4775 103.567 30.1386 105.05 33.1746L102.671 36.941C102.671 36.941 93.1664 30.8498 91.9424 31.2489L94.7889 27.4775Z" fill="#333333"/>
<path opacity="0.1" d="M115.806 89.4141C115.46 93.3789 113.865 96.2722 111.72 98.3959C111.72 98.408 111.747 98.4157 111.759 98.4271C112.094 98.8532 111.545 99.7872 110.531 100.513C109.519 101.238 108.465 101.48 108.11 101.076C102.419 104.238 95.6826 104.221 95.6826 104.221C121.703 108.898 115.806 89.4141 115.806 89.4141ZM112.896 100.271C112.641 100.513 112.355 100.643 112.241 100.542C112.126 100.44 112.241 100.15 112.476 99.8978C112.713 99.647 113.017 99.5229 113.132 99.6252C113.246 99.7267 113.144 100.017 112.896 100.271ZM113.282 98.4564C113.079 98.7926 112.774 98.9887 112.604 98.8969C112.433 98.8051 112.461 98.4537 112.664 98.1175C112.868 97.7812 113.172 97.5859 113.342 97.6797C113.512 97.7745 113.484 98.1202 113.282 98.4564Z" fill="#333333"/>
<path opacity="0.3" d="M106.286 39.9209C107.929 44.0838 109.174 48.3795 110.006 52.7556C110.638 53.1984 111.234 54.5336 111.46 56.1812C111.715 57.9951 111.427 59.5674 110.823 60.0102C110.947 62.9627 110.711 65.9192 110.12 68.8199C110.058 68.7822 109.993 68.7513 109.924 68.7281C109.016 68.486 107.893 69.5602 107.436 71.1325C106.98 72.7047 107.33 74.1754 108.236 74.4198C108.264 74.4198 108.295 74.4198 108.323 74.4198C107.007 77.3225 105.666 78.6819 105.666 78.6819C107.429 78.5128 110.968 82.7941 110.968 82.7941C125.621 57.6636 106.286 39.9209 106.286 39.9209Z" fill="#333333"/>
<path opacity="0.3" d="M109.081 66.9083C109.081 66.2573 108.826 65.7324 108.491 65.7324C108.156 65.7324 107.899 66.2573 107.899 66.9083C107.899 67.5589 108.154 68.0815 108.491 68.0815C108.829 68.0815 109.081 67.5566 109.081 66.9083Z" fill="#333333"/>
<path opacity="0.15" d="M80.1464 76.8045C80.1464 76.8045 80.0828 77.9174 79.8316 79.3785C79.7673 79.3509 79.6985 79.3337 79.6283 79.3277C79.1584 79.3277 78.7803 79.8115 78.7803 80.4091C78.7664 80.6162 78.8157 80.8223 78.9224 81.0032C79.0295 81.1841 79.189 81.3314 79.3819 81.4276C78.9325 83.0819 78.2343 84.7662 77.1396 85.7114L78.7191 85.4498C78.7191 85.4498 83.7367 83.5348 84.5926 78.868C84.5926 78.868 82.4977 76.5966 80.1464 76.8045Z" fill="black"/>
<path opacity="0.15" d="M77.6831 83.3084C77.8481 83.3303 78.0157 83.0906 78.0591 82.7792C78.1022 82.4665 78.0031 82.1938 77.8381 82.1739C77.673 82.1548 77.5055 82.3918 77.4621 82.7042C77.419 83.0159 77.5208 83.2896 77.6831 83.3084Z" fill="black"/>
<path d="M47.0186 29.9975C48.697 29.7557 50.0933 29.6468 51.5382 29.4609C52.9828 29.2743 54.4784 29.0423 56.3803 28.706C56.888 28.6092 57.6699 28.4881 58.6322 28.3432L60.214 28.1422L61.0216 28.0578C61.3159 28.0285 61.6134 27.9899 61.9154 27.9707C62.5197 27.927 63.1417 27.8617 63.779 27.8352C69.4062 27.5121 75.0528 27.9354 80.5573 29.093C83.2598 29.666 85.9213 30.403 88.5252 31.2991L90.3023 31.9473C90.884 32.1578 91.4348 32.4022 91.9783 32.6174C93.0726 33.0408 94.0602 33.5172 94.9818 33.9284C95.4471 34.1268 95.8627 34.3541 96.2672 34.5575L97.4067 35.1429C97.7674 35.3171 98.0847 35.5127 98.3787 35.6869L99.1922 36.1708L99.8444 36.5554C100.035 36.6643 100.179 36.778 100.307 36.8604L100.687 37.1166L101.571 37.7164C101.713 37.8183 101.878 37.9148 102.043 38.0456L102.579 38.4639C102.962 38.7688 103.414 39.0977 103.89 39.4944L105.398 40.8323C105.905 41.3498 106.456 41.8941 107.017 42.4866L107.835 43.4351L108.259 43.9186C108.393 44.0881 108.513 44.2669 108.658 44.4438L109.473 45.5271L110.234 46.6932C111.297 48.3525 112.187 50.1076 112.89 51.9327C113.618 53.8291 114.169 55.7833 114.535 57.7721C114.879 59.7088 115.059 61.669 115.071 63.6333C115.092 64.5788 115.038 65.5008 114.998 66.3884C114.957 66.8309 114.919 67.264 114.881 67.6896C114.842 68.1153 114.777 68.5292 114.728 68.9354C114.489 70.7285 114.118 72.5035 113.618 74.2475C113.099 76.0037 112.69 77.3799 112.304 78.6862C111.936 80.0792 111.488 81.452 110.963 82.7983C112.16 81.8306 113.193 80.6935 114.027 79.4266C114.943 78.0258 115.64 76.5064 116.097 74.9153C116.646 73.0623 117.051 71.1737 117.311 69.2646C117.364 68.8338 117.44 68.3937 117.476 67.9411C117.512 67.4889 117.557 67.0246 117.597 66.5528C117.643 65.6094 117.7 64.6296 117.677 63.6209C117.664 61.5231 117.473 59.4294 117.105 57.3609C116.708 55.2224 116.114 53.122 115.328 51.0837C114.566 49.1117 113.604 47.216 112.454 45.4232C112.174 44.9976 111.903 44.5719 111.623 44.1607L110.743 42.9899C110.597 42.7989 110.458 42.6076 110.311 42.4237L109.854 41.8918L108.975 40.8659C108.37 40.2251 107.774 39.637 107.225 39.0832L105.603 37.6465C105.096 37.2205 104.61 36.8674 104.199 36.5409L103.622 36.0958C103.447 35.9556 103.269 35.854 103.115 35.7427L102.168 35.1015L101.769 34.8188C101.632 34.7317 101.475 34.6106 101.274 34.4919L100.581 34.0928L99.7169 33.5824C99.4028 33.3962 99.0678 33.1884 98.6841 33.0021L97.4783 32.3827C97.0536 32.1676 96.6071 31.9255 96.1272 31.72C95.1726 31.2944 94.1468 30.7984 93.0118 30.3583C92.4454 30.133 91.8741 29.8744 91.2673 29.6613L89.4113 28.9841C86.7008 28.0487 83.9301 27.2801 81.116 26.6836C75.3763 25.4715 69.4871 25.0293 63.6192 25.3703C62.9537 25.3968 62.3063 25.4671 61.6766 25.5105C61.3594 25.5323 61.0494 25.5733 60.745 25.6026L59.9019 25.692C59.3077 25.7623 58.7541 25.842 58.2513 25.9072C57.2359 26.0572 56.4359 26.1903 55.8976 26.2942C54.2175 26.5901 52.5797 27.0723 51.0176 27.7313C49.6002 28.3422 48.2588 29.1024 47.0186 29.9975Z" fill="#202020"/>
<path d="M94.4453 73.6553C95.5549 74.3156 96.4508 74.896 97.421 75.4427C98.3912 75.9894 99.4244 76.5193 100.763 77.1555C101.123 77.3269 101.664 77.5885 102.326 77.9295C102.659 78.0939 103.014 78.2946 103.401 78.498L103.591 78.5996L103.921 78.7859L104.589 79.1655C105.029 79.4318 105.48 79.6954 105.922 79.9832C106.364 80.271 106.816 80.5565 107.253 80.8708C107.689 81.1852 108.131 81.5046 108.568 81.8385C108.789 82.0006 108.997 82.1818 109.21 82.3563C109.424 82.5305 109.642 82.7067 109.847 82.8933C110.254 83.2682 110.682 83.6357 111.066 84.0422C111.872 84.8424 112.599 85.7119 113.239 86.6373L113.707 87.3487C113.849 87.5912 113.981 87.8326 114.118 88.0911C114.187 88.2172 114.262 88.3336 114.321 88.466L114.491 88.8554L114.664 89.2458C114.726 89.3725 114.777 89.5043 114.819 89.6398C114.908 89.9078 114.997 90.1768 115.088 90.4475C115.179 90.7185 115.218 90.9969 115.287 91.2726L115.38 91.6885L115.429 92.1118C115.456 92.3949 115.507 92.6753 115.52 92.9605C115.544 93.5344 115.528 94.1094 115.471 94.6803C115.431 95.2516 115.337 95.8188 115.192 96.3739C115.049 96.924 114.854 97.4603 114.61 97.9774C114.363 98.4868 114.065 98.9727 113.722 99.4293C113.017 100.349 112.137 101.135 111.13 101.749C110.105 102.371 108.994 102.854 107.829 103.183C105.469 103.826 103.01 104.072 100.562 103.909C98.2004 103.77 95.8631 103.373 93.597 102.726C89.639 101.622 85.9248 99.8405 82.6361 97.4697C81.3562 96.5414 80.1587 95.5138 79.0557 94.3982C78.548 93.914 78.1317 93.4302 77.7432 92.9709C77.6643 92.8788 77.4892 92.6922 77.3547 92.557C77.2035 92.4185 77.0406 92.2937 76.8671 92.1818C76.544 91.9743 76.186 91.821 75.8083 91.7292C75.1696 91.5749 74.4982 91.5947 73.871 91.7877C73.4102 91.9319 72.9869 92.1676 72.6293 92.4793C72.4872 92.6024 72.3753 92.7359 72.279 92.8277L72.1115 93.0163L71.9743 93.1716L71.4259 93.7664C71.0652 94.1538 70.5193 94.7126 69.7881 95.3945C67.7525 97.2992 65.477 98.9565 63.0139 100.329C61.3486 101.253 59.5955 102.024 57.778 102.634C57.2957 102.809 56.7932 102.944 56.2879 103.099C55.7823 103.254 55.2722 103.379 54.7287 103.486C53.6445 103.728 52.5467 103.912 51.4406 104.037C49.0894 104.294 46.7152 104.294 44.364 104.037C41.9443 103.796 39.5042 103.263 37.3257 102.216C36.7856 101.953 36.2647 101.657 35.7667 101.328C35.2778 100.997 34.817 100.629 34.3882 100.23C33.9688 99.8291 33.5879 99.3933 33.2505 98.9283C32.9214 98.4613 32.6413 97.965 32.4151 97.4452C31.9675 96.3964 31.7374 95.2761 31.7371 94.1433C31.7458 92.9981 31.9366 91.8607 32.3035 90.7696C33.027 88.5676 34.3524 86.572 35.9064 84.869C36.6776 84.0261 37.5154 83.24 38.4126 82.5181C38.8543 82.1603 39.3012 81.819 39.7582 81.4976C39.9893 81.3379 40.2127 81.1731 40.449 81.0137L40.7941 80.7861L40.9692 80.6725L41.0429 80.6264C42.2536 79.8689 43.5168 79.19 44.8238 78.5945C46.1568 77.9876 47.2056 77.5109 48.1956 77.0176C49.186 76.524 50.1253 76.0136 51.2832 75.4259C50.0916 75.4131 48.9014 75.5076 47.7285 75.7087C46.4285 75.9541 45.1674 76.3572 43.9755 76.9087C42.5799 77.5344 41.2323 78.2539 39.9434 79.0616L39.8624 79.11L39.6769 79.2307L39.3064 79.4728C39.0524 79.6325 38.8137 79.809 38.5673 79.9808C38.0773 80.3265 37.595 80.6943 37.1175 81.079C36.1473 81.8621 35.2399 82.7134 34.4031 83.6263C32.6086 85.5347 31.2457 87.7757 30.3992 90.2081C29.9718 91.4858 29.7507 92.8172 29.7441 94.1585C29.7428 95.5367 30.0242 96.9025 30.5719 98.1781C30.8457 98.8173 31.1859 99.4283 31.5873 100.002C31.9974 100.568 32.4595 101.097 32.9686 101.584C33.4781 102.059 34.0257 102.495 34.6064 102.888C35.1826 103.269 35.7848 103.612 36.4093 103.916C38.8925 105.108 41.5659 105.675 44.1357 105.931C45.4044 106.065 46.6805 106.131 47.9569 106.129C49.195 106.125 50.4318 106.054 51.6616 105.919C52.8428 105.785 54.0153 105.588 55.1731 105.329C55.742 105.216 56.2904 105.053 56.8363 104.915C57.3822 104.778 57.9129 104.605 58.4258 104.431C60.3642 103.78 62.2344 102.957 64.0116 101.974C66.6165 100.519 69.0226 98.7615 71.1743 96.7441C71.9361 96.0185 72.5174 95.4352 72.9011 95.027L73.48 94.3982L73.6246 94.2351L73.8025 94.0344C73.8609 93.9813 73.8988 93.9312 73.9648 93.8754C74.1156 93.7426 74.2939 93.6424 74.4881 93.5798C74.7557 93.5001 75.0414 93.4927 75.3131 93.558C75.474 93.596 75.6262 93.6622 75.7628 93.7523C75.8364 93.7994 75.9063 93.8525 75.9709 93.9113C76.0394 93.9813 76.0801 94.0183 76.2017 94.1538C76.6208 94.6369 77.0829 95.1598 77.6084 95.6843C78.785 96.8769 80.0631 97.9737 81.4299 98.9643C84.907 101.483 88.8366 103.376 93.0261 104.552C95.4385 105.241 97.9259 105.662 100.44 105.81C103.122 105.989 105.816 105.72 108.4 105.016C109.745 104.637 111.026 104.079 112.208 103.36C113.424 102.619 114.484 101.669 115.334 100.558C115.755 99.9975 116.118 99.4 116.421 98.774C116.716 98.1496 116.951 97.503 117.122 96.8379C117.295 96.1863 117.406 95.5216 117.452 94.8498C117.52 94.1934 117.54 93.5334 117.513 92.8741C117.496 92.5425 117.442 92.213 117.409 91.8845L117.348 91.4003L117.241 90.9165C117.162 90.5974 117.109 90.2706 117.011 89.9495C116.911 89.6274 116.804 89.3271 116.7 89.0185C116.652 88.8631 116.593 88.7105 116.522 88.5629L116.325 88.1177L116.13 87.6735C116.061 87.5256 115.976 87.3901 115.901 87.2472C115.746 86.9641 115.596 86.681 115.434 86.4053L114.908 85.6067C114.204 84.5866 113.403 83.63 112.516 82.7484C112.097 82.3032 111.638 81.9085 111.198 81.5023C110.975 81.3039 110.741 81.12 110.515 80.929C110.29 80.7377 110.063 80.5491 109.829 80.3776C109.365 80.0219 108.906 79.6712 108.433 79.3517C107.961 79.0327 107.496 78.7156 107.032 78.4133C106.567 78.1107 106.092 77.835 105.63 77.5569L104.934 77.1504L104.589 76.9547L104.388 76.8481C103.987 76.6377 103.627 76.4295 103.269 76.2581C102.581 75.9074 102.017 75.6387 101.638 75.4622C100.465 74.9054 99.2325 74.47 97.9617 74.1633C96.8076 73.894 95.6313 73.7242 94.4453 73.6553Z" fill="#202020"/>
<path d="M82.4595 69.0858C82.1498 68.1809 81.7919 67.6342 80.9106 67.2351C79.8214 66.7697 78.6822 66.4193 77.5132 66.19C76.8765 66.0632 76.2319 65.9768 75.5834 65.9311C75.3294 65.9069 75.1135 65.9045 74.9638 65.8975H74.7327H74.4991C74.3518 65.8975 74.1384 65.8975 73.8771 65.8975C73.222 65.9227 72.5693 65.9913 71.9243 66.1029C71.2126 66.2273 70.513 66.4069 69.8319 66.6399C69.5198 66.7391 69.2505 66.8578 69.0194 66.9472C68.7883 67.0367 68.6083 67.1238 68.4887 67.189C67.6026 67.6076 67.2929 68.1978 67.0059 69.0929C68.0064 69.1944 68.5701 69.2284 69.3447 68.8921C69.4486 68.8437 69.5984 68.7711 69.8041 68.6961C70.0098 68.6211 70.2357 68.5195 70.5026 68.4375C71.0816 68.2401 71.6759 68.0858 72.2799 67.9751C72.8321 67.88 73.3902 67.8195 73.9507 67.7939C74.1742 67.7939 74.357 67.7939 74.4866 67.7939H74.6844H74.8852C75.0145 67.7939 75.1973 67.7939 75.4208 67.8228C75.9862 67.8689 76.5474 67.9499 77.1017 68.0649C78.1314 68.2751 79.1368 68.5814 80.1033 68.9792C80.4511 69.1285 80.8265 69.2109 81.2077 69.2213C81.6275 69.1998 82.0456 69.1547 82.4595 69.0858Z" fill="#202020"/>
<path d="M21.7144 52.0811C21.0499 53.4109 20.5005 54.7901 20.0717 56.2053C19.6208 57.759 19.33 59.3511 19.2033 60.9586C19.1474 61.6045 19.051 62.6519 18.9494 64.8287C18.8605 66.6988 18.8325 69.8554 19.0052 72.5453C19.0839 73.8902 19.1956 75.1168 19.2998 76.0068C19.348 76.4519 19.3988 76.8124 19.4292 77.0615L19.48 77.4509L19.6578 78.6603C19.7745 79.4199 19.9599 80.4699 20.2138 81.6431C20.4678 82.8162 20.7978 84.1107 21.1838 85.3514C21.5697 86.5924 22.0089 87.7706 22.4178 88.7574C22.889 89.8949 23.429 91.0048 24.0352 92.0828C24.2687 92.5091 24.4973 92.8672 24.6801 93.1786L25.1879 93.9459C26.9386 96.666 29.6007 98.7439 32.7443 99.8454C31.774 98.7516 30.8653 97.6095 30.0223 96.4226C29.2098 95.3032 28.372 94.1543 27.3639 92.6322L26.9145 91.9305C26.7495 91.6433 26.5412 91.3138 26.3279 90.9218C25.7717 89.9299 25.275 88.9081 24.8401 87.8624C24.4617 86.9522 24.0479 85.8423 23.6847 84.6715C23.3216 83.5008 23.0017 82.2772 22.7605 81.1616C22.5193 80.0466 22.339 79.0403 22.2223 78.3147L22.047 77.151C22.047 77.151 21.9759 76.6214 21.882 75.765C21.788 74.9086 21.6789 73.7258 21.6052 72.4269C21.4428 69.8288 21.4732 66.7617 21.5519 64.94C21.6434 62.814 21.7322 61.7955 21.7805 61.1617C21.9251 59.3064 21.981 57.8478 21.9531 56.4474C21.9251 55.0466 21.8058 53.6993 21.7144 52.0811Z" fill="#202020"/>
<path d="M74.999 92.5609C75.4751 92.1594 75.8671 91.6762 76.1545 91.1355C76.4287 90.62 76.6352 90.0736 76.769 89.5101C76.9055 88.922 76.9796 88.3224 76.9896 87.7199C76.9896 87.5598 76.9896 87.3978 76.9896 87.236C76.9896 87.1516 76.9896 87.0692 76.9896 86.9943V86.929C76.9896 86.8998 76.9896 86.929 76.9896 86.9119L77.0011 86.9082L77.0126 86.9119L77.1474 86.8873C77.2614 86.8665 77.3834 86.8493 77.513 86.8154C78.2348 86.657 78.9371 86.426 79.6075 86.1257C80.4252 85.7592 81.188 85.2911 81.8751 84.7323C82.6473 84.1015 83.3257 83.3742 83.8914 82.5702C84.3967 81.857 84.8224 81.0957 85.1609 80.2982L85.2627 80.0564L85.3743 79.7588C85.4758 79.471 85.5571 79.2047 85.6155 78.9629L85.7044 78.6196L85.7246 78.5396C85.7246 78.5251 85.7246 78.5154 85.7093 78.5083L85.6739 78.4814L85.547 78.3846C85.3819 78.2615 85.2398 78.1428 85.1154 78.0655C84.9451 77.9397 84.7776 77.8234 84.6073 77.7073L84.3331 77.5308C84.1604 77.4172 83.9905 77.318 83.8254 77.2211C83.5005 77.0301 83.2058 76.8657 82.934 76.7373C82.3981 76.4494 81.9641 76.2534 81.6315 76.1061C80.9663 75.8156 80.7071 75.7262 80.7071 75.7262L80.3568 75.5933C80.1257 75.518 79.7955 75.3923 79.3716 75.2716C78.2515 74.9323 77.0932 74.7204 75.9207 74.6401C75.187 74.5943 74.4506 74.6071 73.7191 74.6787C73.3434 74.7369 72.9573 74.7682 72.5869 74.8576C72.3989 74.899 72.2084 74.9353 72.0232 74.981L71.472 75.1384C70.1296 75.5516 68.8743 76.1878 67.7647 77.018C67.511 77.2067 67.2875 77.3832 67.0717 77.5574L66.7339 77.8186C66.5536 77.9854 66.3579 78.1451 66.2033 78.3025L65.9669 78.5443C65.952 78.5638 65.9162 78.5782 65.9214 78.6048L65.9416 78.6825L65.9798 78.8348C66.0305 79.0379 66.0914 79.2363 66.1497 79.4273C66.1779 79.5218 66.2057 79.6209 66.2387 79.708L66.3047 79.8893C66.343 79.9885 66.3784 80.083 66.4163 80.17C66.6363 80.7087 66.8993 81.2306 67.2038 81.7302C67.887 82.9081 68.8913 83.8886 70.1111 84.5675C71.1912 85.1503 72.4121 85.4532 73.6531 85.4485C72.6616 84.9287 71.764 84.2609 70.9945 83.47C70.1862 82.659 69.487 81.7551 68.9125 80.7797C68.6627 80.359 68.4455 79.9216 68.2627 79.471C68.2303 79.395 68.1998 79.3146 68.1709 79.2289L68.1379 79.1371L68.3742 78.9266C68.5595 78.7766 68.76 78.6267 68.9685 78.4646C69.8967 77.7763 70.9455 77.2497 72.0663 76.9091L72.5209 76.7763C72.6731 76.7373 72.8305 76.7107 72.9855 76.6744C73.2927 76.5971 73.6128 76.5752 73.9248 76.5244C74.54 76.4639 75.1592 76.4528 75.7761 76.4908C76.7922 76.5591 77.7962 76.7416 78.7672 77.0348C79.1404 77.1391 79.4351 77.2527 79.6405 77.318L79.9557 77.4363C79.9557 77.4363 80.1841 77.5164 80.7835 77.7776C81.0803 77.9131 81.4716 78.0897 81.9564 78.3486C82.2105 78.4767 82.4641 78.6267 82.7588 78.7985C82.9038 78.8856 83.056 78.975 83.211 79.0742L83.4445 79.2242C83.4445 79.1953 83.4139 79.3066 83.3886 79.3644L83.3024 79.5749C83.016 80.2531 82.6542 80.9004 82.223 81.5053C81.758 82.1674 81.2002 82.7669 80.5649 83.2861C80.0138 83.736 79.4014 84.1139 78.7443 84.4085C78.2018 84.6529 77.6329 84.8406 77.0484 84.9694C76.9417 84.9986 76.8399 85.0127 76.746 85.0326L76.5834 85.0611C76.4871 85.0783 76.3957 85.0981 76.3043 85.1076L75.39 85.2185L74.8287 85.2885C74.6866 85.2666 74.7679 85.4001 74.7731 85.4798L74.8239 85.7461C74.8948 86.1012 74.9559 86.4374 75.0119 86.7643C75.0397 86.9744 75.0703 87.1809 75.0981 87.3836C75.1186 87.5286 75.1387 87.6715 75.154 87.8117C75.2249 88.3736 75.2833 88.8934 75.3191 89.4011C75.3615 89.9079 75.3709 90.4176 75.3469 90.925C75.3226 91.4839 75.2055 92.0363 74.999 92.5609Z" fill="#202020"/>
<path d="M60.6396 102.549C61.3416 103.481 62.1746 104.317 63.1153 105.033C64.1692 105.819 65.341 106.449 66.5914 106.903C66.845 107.002 67.1703 107.116 67.6575 107.276C67.8962 107.36 68.1833 107.438 68.5134 107.532C68.8435 107.626 69.2293 107.723 69.6713 107.83C70.0164 107.922 70.4963 107.997 71.0067 108.098C71.2608 108.142 71.535 108.176 71.8015 108.212L72.2001 108.268L72.5938 108.304L73.3225 108.367C73.5484 108.381 73.7513 108.381 73.924 108.389L74.4801 108.408H74.6072H74.9523C75.2446 108.408 75.6532 108.408 76.1102 108.374C77.0485 108.32 77.9819 108.204 78.9034 108.028L79.7566 107.858C80.0255 107.798 80.2643 107.723 80.5183 107.662L81.1963 107.484L81.7853 107.29C82.1509 107.164 82.4734 107.068 82.7399 106.962L83.4102 106.693C83.7581 106.559 84.0972 106.406 84.426 106.233C84.7408 106.071 85.0376 105.914 85.3194 105.749C85.8706 105.416 86.3529 105.067 86.8126 104.726C87.272 104.386 87.6658 103.979 88.0821 103.582C88.4987 103.185 88.8643 102.716 89.2754 102.237C88.6662 102.479 88.1203 102.704 87.6022 102.927C87.0844 103.15 86.5586 103.326 86.0561 103.548C85.5533 103.771 85.0226 103.962 84.4691 104.202C84.1872 104.313 83.8978 104.431 83.5954 104.56C83.2935 104.687 82.9786 104.816 82.6409 104.949L82.024 105.19C81.77 105.285 81.483 105.372 81.148 105.486L80.6097 105.662L79.9925 105.824C79.7743 105.88 79.5456 105.945 79.302 106.001L78.5274 106.155C77.6889 106.312 76.841 106.418 75.9882 106.473C75.5747 106.507 75.2063 106.497 74.9398 106.509H74.625H74.5106L74.0029 106.487C73.8455 106.487 73.6603 106.487 73.457 106.465L72.7943 106.405L72.4388 106.372L72.0732 106.321C71.8192 106.285 71.5857 106.255 71.3522 106.214C70.8848 106.122 70.4507 106.054 70.1331 105.972C69.7297 105.875 69.3714 105.796 69.0746 105.704C68.7775 105.612 68.5082 105.547 68.2875 105.461C67.8406 105.317 67.5258 105.22 67.3072 105.125C65.9464 104.625 64.8875 104.204 63.8565 103.817C62.8258 103.43 61.8229 103.093 60.6396 102.549Z" fill="#202020"/>
<path d="M91.9424 31.2484C92.5543 30.6872 93.1409 30.2061 93.7021 29.7391C94.2627 29.272 94.8016 28.8295 95.3424 28.3676C96.421 27.4459 97.5257 26.4662 98.9175 25.2228L99.339 24.8502L99.5927 24.6085L99.9207 24.3449L100.758 23.6916C101.076 23.4498 101.462 23.1764 101.893 22.8597L102.269 22.5864C102.398 22.4966 102.535 22.4145 102.673 22.3251L103.533 21.7784C103.823 21.58 104.145 21.4203 104.468 21.2387C104.79 21.0575 105.125 20.8712 105.468 20.6922L106.55 20.2083L107.104 19.9666L107.687 19.7536L108.881 19.3182C109.337 19.1586 109.805 19.0134 110.259 18.8223C112.135 18.0748 113.894 17.0842 115.484 15.8785C117.019 14.7064 118.455 13.4229 119.781 12.0396C121.051 10.7552 122.218 9.52388 123.348 8.71598C123.834 8.35002 124.379 8.06388 124.963 7.86934L125.339 7.77499L125.705 7.72661C125.827 7.72661 125.943 7.72661 126.061 7.71212H126.169H126.149C126.15 7.72422 126.15 7.73636 126.149 7.7484C126.179 7.82738 126.204 7.90828 126.223 7.99028C126.303 8.31572 126.357 8.64648 126.386 8.97965C126.413 9.27234 126.426 9.50939 126.434 9.6691V9.91098C126.434 9.91098 126.434 10.194 126.434 10.7213C126.434 11.2486 126.403 12.0227 126.332 12.9902C126.187 14.9254 125.847 17.6395 125.301 20.6632C124.755 23.6869 124.032 27.025 123.171 30.23C122.309 33.4353 121.365 36.5024 120.457 39.011C119.481 41.6959 118.75 43.2973 118.371 44.1292C117.592 45.8104 117.004 47.1193 116.44 48.3674C116.155 48.9915 115.876 49.5964 115.553 50.2154C115.217 50.8818 114.804 51.5099 114.319 52.0875C115.071 51.7832 115.772 51.3757 116.399 50.8784C116.995 50.4121 117.543 49.8946 118.04 49.3324C119.136 48.0594 120.04 46.6459 120.723 45.1332C121.131 44.2623 121.899 42.5886 122.907 39.8116C123.846 37.2303 124.826 34.0956 125.687 30.8274C126.548 27.5596 127.299 24.1633 127.85 21.072C128.401 17.9806 128.757 15.1939 128.904 13.1596C128.995 12.0548 129.027 10.9463 129 9.83836V9.5578C129 9.37395 128.98 9.10298 128.945 8.74496C128.906 8.28627 128.83 7.83097 128.719 7.38318C128.68 7.2428 128.635 7.09287 128.577 6.92835C128.561 6.88488 128.551 6.86064 128.523 6.79047C128.495 6.72036 128.468 6.66229 128.44 6.60671C128.378 6.49542 128.322 6.36479 128.249 6.26803C128.108 6.0335 127.916 5.82958 127.687 5.66886C127.458 5.50814 127.198 5.39429 126.92 5.33434C126.764 5.30176 126.605 5.28394 126.446 5.28111L126.084 5.25684L125.461 5.27862C125.25 5.30287 125.035 5.33669 124.816 5.36813C124.598 5.39957 124.387 5.46732 124.169 5.52784C123.308 5.79975 122.502 6.20861 121.785 6.73731C120.34 7.77983 119.146 9.07638 117.885 10.3367C116.648 11.6278 115.308 12.8263 113.878 13.9215C113.163 14.4519 112.412 14.9367 111.63 15.3729C110.866 15.8026 110.07 16.1786 109.249 16.4978C108.85 16.6671 108.437 16.7904 108.038 16.9332L106.707 17.417L106.055 17.6589L105.437 17.9394L104.239 18.4909C103.859 18.6869 103.498 18.895 103.14 19.0885C102.782 19.282 102.429 19.4682 102.124 19.6811L101.197 20.3051C101.048 20.4019 100.895 20.4938 100.756 20.5906L100.349 20.8858C99.8818 21.2293 99.4652 21.5148 99.1232 21.7905L98.2364 22.5161L97.8885 22.8015L97.6022 23.0554L97.155 23.4572C95.8921 24.5728 94.7937 25.8451 93.8874 27.2402C93.494 27.8535 93.1399 28.4883 92.8261 29.1416C92.4904 29.8278 92.1954 30.5309 91.9424 31.2484Z" fill="#202020"/>
<path d="M102.673 36.9402C104.511 35.1625 105.694 33.9336 107.312 31.4855L108.962 29.0135C109.835 27.7146 111.318 25.5324 112.616 23.6919C113.913 21.851 115.018 20.3729 115.018 20.3729C115.018 20.3729 115.942 19.1248 117.166 17.5717C118.39 16.0188 119.936 14.1853 121.106 12.9395C122.043 11.8975 123.086 10.9455 124.219 10.0972C124.659 9.76063 125.145 9.4831 125.664 9.27235C125.801 9.22016 125.948 9.18987 126.096 9.18288C126.226 9.18278 126.351 9.23042 126.446 9.31592C126.772 9.64005 127.018 10.0292 127.167 10.4553C127.384 10.987 127.563 11.5326 127.7 12.088C127.86 11.5129 127.96 10.9237 127.995 10.3295C128.011 10.0311 127.996 9.73201 127.947 9.43687C127.894 9.10151 127.777 8.77835 127.601 8.48378C127.37 8.10777 127.012 7.81709 126.586 7.65893C126.147 7.50833 125.673 7.47736 125.217 7.56942C124.42 7.75193 123.673 8.09593 123.029 8.57813C122.362 9.03776 121.197 9.98109 119.611 11.6696C118.384 12.9589 116.802 14.8456 115.564 16.4324C114.325 18.0193 113.392 19.2795 113.392 19.2795C113.392 19.2795 112.268 20.7817 110.957 22.6297C109.647 24.478 108.147 26.6696 107.273 27.9806C106.333 29.386 105.892 30.0682 105.621 30.4865C104.031 32.9635 103.421 34.5479 102.673 36.9402Z" fill="#202020"/>
<path d="M24.3123 53.7306C25.2854 53.085 26.2124 52.3786 27.0874 51.6164C28.0311 50.7684 28.8936 49.8424 29.6647 48.8492C29.9187 48.5344 30.2891 48.0556 30.7412 47.4558C30.9695 47.1555 31.2111 46.822 31.4752 46.4686L31.6757 46.1882L31.9168 45.8496C32.0791 45.6075 32.247 45.3923 32.4093 45.1506C32.737 44.6667 33.0671 44.1829 33.3944 43.6702C33.5546 43.4281 33.7197 43.1719 33.882 42.9177C34.0446 42.6638 34.2069 42.417 34.39 42.1726C34.5728 41.9285 34.7327 41.6746 34.9179 41.447C35.1035 41.2197 35.2835 40.9631 35.4815 40.7214L35.7585 40.3586L36.0657 40.015C36.2662 39.7732 36.4924 39.5725 36.7082 39.3499C37.1551 38.9242 37.6354 38.5322 38.1452 38.1768C38.6765 37.818 39.2329 37.4949 39.8108 37.2091C40.1054 37.0568 40.4126 36.9115 40.7223 36.7639L42.4719 35.9415L42.5887 35.886L42.6471 35.8567C42.6648 35.8567 42.6471 35.8423 42.6471 35.8349L42.6318 35.806L42.5123 35.581L42.2763 35.1312L41.8016 34.2361L41.5146 33.7233C41.4308 33.5687 41.3394 33.4211 41.2605 33.2711C40.9127 32.6709 40.537 32.0882 40.1586 31.5123C38.6828 29.3321 37.0467 27.2539 35.2633 25.2933C33.6002 23.4477 31.9777 21.8439 30.5633 20.5183C29.1493 19.1927 27.938 18.1477 27.09 17.4293C26.242 16.7108 25.7519 16.319 25.7519 16.319C25.7519 16.319 25.2695 15.9199 24.3935 15.2305C23.5175 14.541 22.2453 13.5662 20.6509 12.4414C18.8119 11.1329 16.9051 9.91305 14.9379 8.78643C13.7898 8.12721 12.6029 7.53117 11.3831 7.00126C10.7229 6.71853 10.0445 6.47617 9.35192 6.27557C8.98259 6.16549 8.6059 6.07901 8.22451 6.0167C7.79038 5.93809 7.34658 5.91933 6.90674 5.96109C6.77719 5.97229 6.64893 5.99414 6.52327 6.02636C6.3825 6.05941 6.24492 6.10392 6.112 6.15944C5.88153 6.24894 5.67307 6.38323 5.50008 6.55374C5.4417 6.60384 5.38742 6.658 5.33751 6.71577C5.19268 6.88133 5.06194 7.05768 4.9465 7.24305L4.78147 7.53335L4.65453 7.82117C4.3709 8.54905 4.2156 9.31654 4.19499 10.0926C4.16941 11.4879 4.28079 12.8825 4.52759 14.258C4.74092 15.5885 4.99484 16.8753 5.24873 18.1284L5.97995 21.6818C6.36588 23.5563 6.65282 25.0926 6.79252 25.8592C7.30032 28.6966 7.85887 30.2544 8.73743 32.6057C9.11829 30.1384 9.23252 28.4307 8.73743 25.5448C8.60538 24.7661 8.31848 23.2056 7.92993 21.319L7.19364 17.7607C6.93975 16.5222 6.68583 15.2547 6.48779 13.9775C6.26778 12.7236 6.16746 11.4533 6.18814 10.1821C6.20016 9.61696 6.30823 9.0574 6.50808 8.52511L6.58175 8.35101L6.67311 8.19617C6.73115 8.09776 6.79738 8.00388 6.87116 7.91552C6.89402 7.88169 6.88645 7.91552 6.89152 7.89867C6.89152 7.89867 6.89152 7.89867 6.92961 7.88408C6.95626 7.87187 6.98437 7.86296 7.01342 7.85755C7.05547 7.84571 7.09902 7.83929 7.14284 7.83815C7.39745 7.81579 7.65426 7.82961 7.9046 7.87924C8.20196 7.92776 8.49553 7.99564 8.78316 8.08249C9.38931 8.26453 9.98292 8.48268 10.5604 8.73556C11.712 9.23914 12.8327 9.80448 13.9172 10.4288C15.8303 11.5205 17.6845 12.7033 19.4727 13.9727C21.0318 15.0709 22.2657 16.0263 23.1341 16.6988C24.0025 17.3713 24.4672 17.7631 24.4672 17.7631C24.4672 17.7631 24.9444 18.1477 25.7773 18.8517C26.6101 19.5556 27.7882 20.5812 29.1747 21.8751C30.5609 23.1693 32.1403 24.7419 33.7451 26.5367C35.4663 28.429 37.0443 30.4353 38.4677 32.5405C38.8284 33.0895 39.1863 33.6433 39.5164 34.2119C39.6002 34.3548 39.6863 34.495 39.7704 34.6376L39.9786 35.0128H39.9581L39.8389 35.0706C39.5189 35.2229 39.1988 35.3729 38.8767 35.5377C38.2195 35.8662 37.586 36.2353 36.9796 36.6429C36.3823 37.0608 35.8186 37.5208 35.2939 38.0194C35.0399 38.2733 34.7858 38.5177 34.5624 38.779L34.2145 39.1636L33.8921 39.558C33.6738 39.8166 33.4758 40.0829 33.2777 40.3465C33.0796 40.6101 32.8968 40.876 32.7116 41.1397C32.526 41.4036 32.3537 41.6672 32.1834 41.9285L31.6958 42.6833C31.3834 43.1668 31.0637 43.6506 30.7465 44.1103C30.5939 44.352 30.4288 44.5652 30.2714 44.7875L30.0379 45.1166L29.8422 45.3876L29.1288 46.355C28.6871 46.9431 28.3264 47.4144 28.0828 47.7268C27.3149 48.6962 26.6053 49.7066 25.9575 50.7529C25.3812 51.6839 24.8987 52.6153 24.3123 53.7306Z" fill="#202020"/>
<path d="M6.12296 7.2793C5.72253 7.56997 5.39254 7.93966 5.15565 8.36294L4.99062 8.67255L4.85856 8.987C4.77537 9.20057 4.70577 9.41862 4.6503 9.64013C4.4352 10.6282 4.39232 11.6431 4.52336 12.6445C4.56398 13.0412 4.63508 13.6846 4.85599 14.9909C5.08705 16.4084 5.78275 19.6909 5.78275 19.6909C5.78275 19.6909 6.34894 22.4363 6.64095 23.9554C6.97101 25.6631 7.14876 26.7229 7.24022 27.2743C7.60837 29.5143 8.04007 30.748 8.72813 32.5959C9.03025 30.6609 9.12929 29.316 8.77894 27.0444C8.69004 26.4832 8.52501 25.4069 8.1847 23.682C7.8953 22.1461 7.31382 19.4006 7.31382 19.4006C7.31382 19.4006 6.62833 16.1229 6.39467 14.7417C6.17637 13.467 6.11034 12.8597 6.06461 12.4849C5.94521 11.3842 5.8437 10.5497 5.78783 9.73693C5.78783 9.54097 5.75989 9.33782 5.76757 9.14432V8.85156L5.7929 8.55161C5.82056 8.11185 5.93239 7.68063 6.12296 7.2793Z" fill="#202020"/>
<path d="M49.8716 71.2441C53.3663 71.2441 56.1993 68.5454 56.1993 65.2161C56.1993 61.8866 53.3663 59.1875 49.8716 59.1875C46.3769 59.1875 43.5439 61.8866 43.5439 65.2161C43.5439 68.5454 46.3769 71.2441 49.8716 71.2441Z" fill="black"/>
<path fill-rule="evenodd" clip-rule="evenodd" d="M49.8717 59.5502C46.5872 59.5502 43.9249 62.0865 43.9249 65.2157C43.9249 68.3445 46.5872 70.8808 49.8717 70.8808C53.1561 70.8808 55.8184 68.3445 55.8184 65.2157C55.8184 62.0865 53.1561 59.5502 49.8717 59.5502ZM43.1631 65.2157C43.1631 61.6857 46.1667 58.8242 49.8717 58.8242C53.5769 58.8242 56.5802 61.6857 56.5802 65.2157C56.5802 68.7453 53.5769 71.6068 49.8717 71.6068C46.1667 71.6068 43.1631 68.7453 43.1631 65.2157Z" fill="black"/>
<path d="M97.3081 70.3275C100.271 70.3275 102.673 68.039 102.673 65.2162C102.673 62.393 100.271 60.1045 97.3081 60.1045C94.3445 60.1045 91.9424 62.393 91.9424 65.2162C91.9424 68.039 94.3445 70.3275 97.3081 70.3275Z" fill="black"/>
<path fill-rule="evenodd" clip-rule="evenodd" d="M97.3023 60.4672C94.5492 60.4672 92.3174 62.593 92.3174 65.2157C92.3174 67.8381 94.5492 69.9642 97.3023 69.9642C100.054 69.9642 102.286 67.8381 102.286 65.2157C102.286 62.593 100.054 60.4672 97.3023 60.4672ZM91.5557 65.2157C91.5557 62.1921 94.1287 59.7412 97.3023 59.7412C100.476 59.7412 103.048 62.1921 103.048 65.2157C103.048 68.2389 100.476 70.6902 97.3023 70.6902C94.1287 70.6902 91.5557 68.2389 91.5557 65.2157Z" fill="black"/>
<path d="M48.4868 32.0275C48.4948 31.2603 48.4389 30.4933 48.3193 29.7341C47.951 27.3465 46.9283 25.0937 45.3537 23.2031C44.8457 22.5773 44.297 21.9829 43.7107 21.4227C43.3399 21.0599 42.9108 20.6825 42.4413 20.2956L42.1035 20.0295C41.9767 19.9279 41.8495 19.8287 41.7074 19.7344C41.4332 19.5432 41.1666 19.3376 40.8747 19.1586C40.5825 18.9796 40.293 18.7813 39.9834 18.6119C39.6738 18.4426 39.3662 18.2588 39.0364 18.104L38.5489 17.8621C38.3814 17.7822 38.2111 17.7145 38.0412 17.6396L37.5331 17.417L37.0025 17.221L36.4666 17.0252L35.9158 16.8582L34.8594 16.5365C34.1842 16.3309 33.4885 16.1373 32.8283 15.881C32.4905 15.76 32.1451 15.639 31.8125 15.5157L30.812 15.0972C29.4721 14.5263 28.1926 13.8347 26.9908 13.0315C25.7705 12.197 24.607 11.2897 23.5072 10.315C22.3799 9.34739 21.2601 8.32904 20.0972 7.3929C18.9342 6.45672 17.7663 5.57145 16.5882 4.79488C15.4633 4.01102 14.2746 3.31384 13.0334 2.70977C12.4426 2.42269 11.8338 2.17065 11.2104 1.95509C10.606 1.74804 9.98304 1.59414 9.34927 1.49542C8.72383 1.39855 8.08755 1.38225 7.45763 1.44714C6.31381 1.56203 5.23961 2.02613 4.39542 2.77029C4.22278 2.92751 4.06028 3.08473 3.91808 3.2395C3.77588 3.39437 3.64387 3.5443 3.53976 3.69184C3.20907 4.1317 2.92822 4.60357 2.70185 5.09968L2.53425 5.4771C2.49616 5.5617 2.48094 5.60524 2.48094 5.60524C2.48094 5.60524 2.40984 5.7819 2.29051 6.11329C2.12844 6.59011 1.99197 7.07455 1.88174 7.56461C1.71605 8.30849 1.59231 9.06021 1.51102 9.81671C1.49323 10.0343 1.46533 10.2545 1.45007 10.4915L1.4196 11.2342C1.39576 11.7739 1.40934 12.3145 1.46022 12.8525C1.57684 14.0674 1.84974 15.2641 2.27275 16.4156C2.70693 17.625 3.25793 18.8104 3.79621 20.0199C4.3345 21.2294 4.87028 22.4701 5.34758 23.7666C5.57106 24.4176 5.81226 25.0729 5.99755 25.7504C6.09409 26.089 6.20327 26.4252 6.29463 26.7661L6.5562 27.8041C6.74152 28.4934 6.85832 29.2045 7.00048 29.9109L7.1047 30.4432C7.13768 30.6197 7.15797 30.801 7.18591 30.9778L7.3433 32.0541L7.50833 33.1596C7.57435 33.5466 7.6124 33.936 7.70637 34.3183C7.8003 34.7003 7.85878 35.0826 7.96029 35.4575C8.0619 35.8324 8.16348 36.2073 8.27774 36.5775C8.72977 38.0199 9.31782 39.4206 10.0348 40.7622C10.3826 41.4128 10.7457 42.0466 11.1291 42.6492C11.3144 42.9561 11.5151 43.2467 11.7105 43.5368L12.0051 43.9699L12.2819 44.3495C12.9677 45.296 13.7051 46.2075 14.4908 47.0807C15.1562 47.8305 15.7274 48.4062 16.1083 48.7858C17.2914 49.9737 18.6293 51.0116 20.0896 51.8747C20.733 52.249 21.3985 52.5872 22.0827 52.8885C22.8108 53.2096 23.5567 53.492 24.3172 53.7351C23.7307 53.1474 23.2253 52.5886 22.7353 52.054L21.2829 50.4841C20.3156 49.4512 19.2771 48.4085 17.9542 47.0975C17.6012 46.7347 17.0681 46.1951 16.4485 45.4913C15.72 44.678 15.036 43.8297 14.3995 42.9491L14.1456 42.5984L13.8739 42.1993C13.6936 41.9306 13.5057 41.662 13.3381 41.3816C12.9852 40.8274 12.6551 40.2495 12.3352 39.6543C11.6876 38.4432 11.1564 37.1786 10.7482 35.8761C10.6442 35.5469 10.5604 35.2107 10.4664 34.8744C10.3725 34.5382 10.3141 34.1973 10.2354 33.8587C10.1566 33.5201 10.1185 33.1741 10.0602 32.8305L9.89516 31.737L9.73003 30.61C9.70219 30.4237 9.67933 30.2351 9.64631 30.0488L9.53706 29.4876C9.38732 28.7425 9.26284 27.9927 9.0648 27.2597L8.79569 26.1616C8.69915 25.7961 8.58493 25.436 8.48082 25.0779C8.2802 24.352 8.02628 23.6604 7.78768 22.966C7.27988 21.5922 6.7238 20.2714 6.16261 19.0498C5.6015 17.8282 5.08351 16.6865 4.70018 15.6245C4.34374 14.6587 4.11432 13.6544 4.01709 12.6347C3.92218 11.1082 4.0469 9.5766 4.38781 8.08231C4.47777 7.67389 4.5896 7.27024 4.72294 6.87281L4.87275 6.47605C4.87275 6.47605 4.87275 6.43977 4.91341 6.37451L5.04038 6.0915C5.09366 5.96575 5.17747 5.82783 5.26376 5.65366C5.37163 5.47058 5.48943 5.29288 5.61669 5.12147C5.68271 5.02228 5.7691 4.94246 5.84774 4.84327C5.92649 4.74411 6.02549 4.66429 6.12203 4.5724C6.33032 4.3985 6.56165 4.25133 6.81012 4.13456C7.10626 4.01008 7.42044 3.92855 7.74195 3.89264C8.14231 3.85474 8.54615 3.86782 8.94293 3.93137C9.42679 4.00477 9.9027 4.11976 10.3648 4.2748C10.8861 4.45563 11.3949 4.66732 11.8883 4.90863C13.0099 5.45979 14.0839 6.09473 15.1003 6.80745C16.2098 7.53314 17.3118 8.37251 18.4163 9.26757C19.5208 10.1626 20.6101 11.1447 21.7654 12.1413C22.9394 13.1821 24.1809 14.1516 25.4826 15.0441C26.8161 15.9341 28.235 16.7018 29.7202 17.3372L30.8148 17.792C31.1804 17.9322 31.5484 18.058 31.9143 18.1887C32.6427 18.4644 33.3766 18.6724 34.0977 18.8901L35.1135 19.2022L35.5906 19.3473L36.0555 19.5166L36.5149 19.686L36.9566 19.8771C37.104 19.9424 37.2513 20.0004 37.3962 20.0706L37.8174 20.2811C38.102 20.4141 38.3685 20.5689 38.6326 20.7188C38.8967 20.8688 39.1403 21.0309 39.3944 21.1907C39.648 21.3501 39.8791 21.5219 40.1154 21.6863C40.2346 21.7664 40.349 21.8534 40.4581 21.9429L40.7427 22.1678C41.159 22.5017 41.5322 22.8305 41.8599 23.1355C42.3749 23.6267 42.8593 24.1469 43.3097 24.6933C44.4599 26.0792 45.2773 27.2453 46.0849 28.3653C46.4887 28.9288 46.8796 29.4853 47.2782 30.0754C47.6768 30.6655 48.1007 31.3067 48.4868 32.0275Z" fill="#202020"/>
<path d="M48.5866 64.7734C49.9662 64.7734 51.0849 63.963 51.0849 62.9637C51.0849 61.9643 49.9662 61.1543 48.5866 61.1543C47.2066 61.1543 46.0879 61.9643 46.0879 62.9637C46.0879 63.963 47.2066 64.7734 48.5866 64.7734Z" fill="#D8D8D8"/>
<path d="M46.1692 66.8318C46.6377 66.8318 47.0175 66.47 47.0175 66.0238C47.0175 65.5776 46.6377 65.2158 46.1692 65.2158C45.7011 65.2158 45.3213 65.5776 45.3213 66.0238C45.3213 66.47 45.7011 66.8318 46.1692 66.8318Z" fill="#D8D8D8"/>
<path d="M48.6839 67.1339C49.0189 67.1339 49.2907 66.875 49.2907 66.5559C49.2907 66.2365 49.0189 65.9775 48.6839 65.9775C48.3486 65.9775 48.0771 66.2365 48.0771 66.5559C48.0771 66.875 48.3486 67.1339 48.6839 67.1339Z" fill="#D8D8D8"/>
<path d="M96.2758 65.2164C97.5859 65.2164 98.648 64.4474 98.648 63.4988C98.648 62.5503 97.5859 61.7812 96.2758 61.7812C94.9663 61.7812 93.9043 62.5503 93.9043 63.4988C93.9043 64.4474 94.9663 65.2164 96.2758 65.2164Z" fill="#D8D8D8"/>
<path d="M93.9826 67.1678C94.4278 67.1678 94.7875 66.8241 94.7875 66.4008C94.7875 65.9774 94.4278 65.6338 93.9826 65.6338C93.5381 65.6338 93.1777 65.9774 93.1777 66.4008C93.1777 66.8241 93.5381 67.1678 93.9826 67.1678Z" fill="#D8D8D8"/>
<path d="M96.3607 67.4585C96.6791 67.4585 96.9373 67.2127 96.9373 66.9094C96.9373 66.6061 96.6791 66.3604 96.3607 66.3604C96.0427 66.3604 95.7842 66.6061 95.7842 66.9094C95.7842 67.2127 96.0427 67.4585 96.3607 67.4585Z" fill="#D8D8D8"/>
<path d="M73.5757 79.589C74.2179 79.0496 73.8652 78.1498 72.8595 78.1593C71.7933 78.1714 70.5741 78.6576 69.9726 79.3351C69.0075 80.4091 71.6942 81.1734 73.5757 79.589Z" fill="#EAEAEA"/>
</svg>
