<svg width="610" height="139" viewBox="0 0 610 139" fill="none" xmlns="http://www.w3.org/2000/svg">
<g clip-path="url(#clip0_451_412)">
<path d="M172.905 57.1094C168.595 54.2026 157.273 52.9614 149.043 55.1847C148.601 46.9697 144.37 40.0457 136.636 34.0043L133.774 32.0795L131.867 34.968C128.116 40.6716 126.535 48.2738 127.094 55.1847C127.536 59.4427 129.013 64.2272 131.867 67.6996C121.153 73.927 111.277 72.5129 67.5408 72.5129H0.0159275C-0.180092 82.4091 1.40636 101.442 13.4864 116.937C14.8219 118.65 16.2829 120.305 17.872 121.9C27.6939 131.754 42.5339 138.982 64.7233 139C98.5772 139.031 127.58 120.695 145.225 76.365C151.029 76.4593 166.356 77.4073 173.857 62.8864C174.04 62.6428 175.765 59.0368 175.765 59.0368L172.905 57.1121V57.1094ZM44.0838 48.0617H25.096V67.0868H44.0838V48.0617ZM68.6123 48.0617H49.6246V67.0868H68.6123V48.0617ZM93.1435 48.0617H74.1558V67.0868H93.1435V48.0617ZM117.675 48.0617H98.687V67.0868H117.675V48.0617ZM19.5526 48.0617H0.564783V67.0868H19.5526V48.0617ZM44.0838 24.0322H25.096V43.0573H44.0838V24.0322ZM68.6123 24.0322H49.6246V43.0573H68.6123V24.0322ZM93.1435 24.0322H74.1558V43.0573H93.1435V24.0322ZM93.1435 0H74.1558V19.0251H93.1435V0Z" fill="#1D63ED"/>
<path d="M608.821 109.804C608.821 114.764 604.934 118.658 599.88 118.658C594.825 118.658 590.884 114.764 590.884 109.804C590.884 104.844 594.875 101.057 599.88 101.057C604.885 101.057 608.821 104.951 608.821 109.804ZM593.121 109.804C593.121 113.698 595.996 116.791 599.935 116.791C603.873 116.791 606.589 113.698 606.589 109.859C606.589 106.02 603.766 102.817 599.885 102.817C596.004 102.817 593.124 105.965 593.124 109.804H593.121ZM598.5 114.392H596.477V105.645C597.271 105.485 598.393 105.378 599.828 105.378C601.479 105.378 602.222 105.645 602.862 106.02C603.343 106.392 603.714 107.085 603.714 107.939C603.714 108.9 602.969 109.647 601.908 109.966V110.073C602.755 110.39 603.236 111.032 603.502 112.205C603.766 113.538 603.926 114.072 604.143 114.392H601.96C601.694 114.072 601.532 113.274 601.268 112.257C601.108 111.299 600.575 110.872 599.456 110.872H598.5V114.394V114.392ZM598.549 109.432H599.506C600.625 109.432 601.529 109.06 601.529 108.154C601.529 107.353 600.946 106.816 599.665 106.816C599.135 106.816 598.761 106.871 598.549 106.928V109.432Z" fill="white"/>
<path d="M265.844 21.2854C264.592 20.0598 263.089 19.4365 261.289 19.4365C259.488 19.4365 257.941 20.0598 256.736 21.2854C255.528 22.5109 254.938 24.0822 254.938 25.9546V57.2223C248.743 52.0922 241.595 49.5049 233.464 49.5049C224.014 49.5049 215.932 52.9249 209.236 59.7887C202.54 66.6288 199.216 74.904 199.216 84.6091C199.216 94.3141 202.564 102.566 209.236 109.429C215.932 116.27 223.993 119.713 233.464 119.713C242.936 119.713 250.907 116.293 257.692 109.429C264.388 102.657 267.713 94.3848 267.713 84.6091V25.9546C267.713 24.0822 267.099 22.5109 265.844 21.2854ZM253.252 93.0676V93.1147C252.136 95.7727 250.61 98.106 248.675 100.094C246.741 102.105 244.462 103.676 241.867 104.855C239.248 106.033 236.47 106.612 233.488 106.612C230.506 106.612 227.66 106.033 225.041 104.855C222.422 103.676 220.166 102.105 218.256 100.117C216.343 98.1296 214.819 95.7963 213.703 93.1383C212.587 90.4567 212.017 87.6154 212.017 84.6091C212.017 81.6027 212.587 78.7614 213.703 76.0798C214.819 73.3982 216.345 71.0885 218.256 69.1009C220.169 67.1133 222.445 65.542 225.041 64.3636C227.66 63.1852 230.461 62.6064 233.488 62.6064C236.514 62.6064 239.248 63.1852 241.867 64.3636C244.486 65.542 246.741 67.1133 248.675 69.1245C250.61 71.1356 252.136 73.4689 253.252 76.1034C254.368 78.7614 254.938 81.5818 254.938 84.5855C254.938 87.5892 254.368 90.4331 253.252 93.0676Z" fill="white"/>
<path d="M548.795 71.1357C547.132 66.9745 544.6 63.2088 541.278 59.8332L541.233 59.8097C534.469 52.9695 526.383 49.5259 517.005 49.5259C507.628 49.5259 499.471 52.946 492.775 59.8097C486.079 66.6498 482.757 74.925 482.757 84.6301C482.757 94.3351 486.105 102.587 492.775 109.45C499.471 116.291 507.534 119.734 517.005 119.734C525.609 119.734 533.055 116.893 539.388 111.208C540.614 109.914 541.233 108.343 541.233 106.515C541.233 104.687 540.643 103.071 539.433 101.846C538.228 100.62 536.701 99.9968 534.88 99.9968C533.288 100.044 531.874 100.576 530.669 101.639C528.756 103.302 526.684 104.574 524.431 105.407C522.175 106.24 519.716 106.656 517.032 106.656C514.661 106.656 512.385 106.287 510.223 105.525C508.056 104.763 506.034 103.721 504.233 102.359C502.408 100.995 500.84 99.3788 499.497 97.4593C498.154 95.5633 497.129 93.4605 496.447 91.1507H544.882C546.678 91.1507 548.18 90.5275 549.435 89.3019C550.689 88.0763 551.304 86.5051 551.304 84.6327C551.304 79.7802 550.457 75.2733 548.8 71.1357H548.795ZM496.397 78.1146C497.058 75.8259 498.059 73.723 499.403 71.8061C500.749 69.9101 502.341 68.2708 504.162 66.9064C506.007 65.5421 508.009 64.5024 510.218 63.7404C512.424 62.9783 514.677 62.6091 517.005 62.6091C519.334 62.6091 521.582 62.9783 523.764 63.7404C525.952 64.5024 527.959 65.5421 529.755 66.9064C531.579 68.2708 533.17 69.8866 534.514 71.8061C535.878 73.7021 536.908 75.8049 537.614 78.1146H496.395H496.397Z" fill="white"/>
<path d="M608.317 53.9174C607.177 52.7861 605.742 51.9062 604.012 51.2594C602.282 50.6125 600.392 50.1726 598.32 49.9186C596.271 49.6645 594.334 49.5493 592.539 49.5493C588.459 49.5493 584.635 50.2197 581.039 51.5605C577.44 52.9013 574.115 54.8182 571.063 57.3139V56.0674C571.063 54.2657 570.448 52.7389 569.194 51.4688C567.945 50.1988 566.463 49.5519 564.712 49.5519C562.96 49.5519 561.408 50.1988 560.159 51.4688C558.904 52.7389 558.29 54.2892 558.29 56.0674V113.221C558.29 115.023 558.904 116.55 560.159 117.82C561.408 119.09 562.911 119.737 564.712 119.737C566.512 119.737 567.966 119.09 569.194 117.82C570.448 116.55 571.063 114.999 571.063 113.221V84.6325C571.063 81.5817 571.632 78.7168 572.748 76.0352C573.864 73.3536 575.391 71.0439 577.325 69.0563C579.264 67.0687 581.541 65.4974 584.133 64.3635C586.752 63.2087 589.533 62.6299 592.518 62.6299C595.502 62.6299 598.32 63.1615 600.897 64.2012C601.919 64.6647 602.81 64.8951 603.584 64.8951C604.472 64.8951 605.314 64.7328 606.087 64.3871C606.861 64.0414 607.546 63.5779 608.116 62.9782C608.685 62.3785 609.137 61.6845 609.48 60.8754C609.822 60.0897 610.005 59.2334 610.005 58.309C610.005 56.5073 609.435 55.0513 608.299 53.9174H608.319H608.317Z" fill="white"/>
<path d="M340.941 71.1591C339.278 67.0215 336.795 63.2322 333.45 59.8121C326.689 52.972 318.605 49.5283 309.222 49.5283C299.839 49.5283 291.69 52.9484 284.994 59.8121C278.298 66.6522 274.976 74.9275 274.976 84.6325C274.976 94.3375 278.324 102.589 284.994 109.453C291.69 116.293 299.75 119.737 309.222 119.737C318.694 119.737 326.665 116.317 333.45 109.453C340.146 102.681 343.471 94.4083 343.471 84.6325C343.424 79.78 342.582 75.2967 340.943 71.1591H340.941ZM329.01 93.0675V93.1146C327.894 95.7726 326.367 98.1059 324.433 100.094C322.499 102.105 320.22 103.676 317.625 104.854C315.029 106.033 312.228 106.612 309.246 106.612C306.263 106.612 303.417 106.033 300.798 104.854C298.18 103.676 295.924 102.105 294.013 100.117C292.1 98.1295 290.577 95.7962 289.461 93.1382C288.345 90.4566 287.775 87.6152 287.775 84.6089C287.775 81.6026 288.345 78.7613 289.461 76.0797C290.577 73.3981 292.103 71.0884 294.013 69.1008C295.927 67.1131 298.203 65.5419 300.798 64.3635C303.417 63.185 306.219 62.6063 309.246 62.6063C312.272 62.6063 315.006 63.185 317.625 64.3635C320.244 65.5419 322.499 67.1131 324.433 69.1243C326.367 71.1355 327.894 73.4688 329.01 76.1033C330.126 78.7613 330.695 81.5817 330.695 84.5854C330.695 87.5891 330.126 90.433 329.01 93.0675Z" fill="white"/>
<path d="M477.927 56.0438C477.927 55.1665 477.744 54.3338 477.404 53.5482C477.062 52.7625 476.607 52.0476 476.037 51.4453C475.468 50.8456 474.785 50.3585 474.012 50.0364C473.238 49.7143 472.397 49.5284 471.508 49.5284C470.233 49.5284 469.093 49.8531 468.092 50.5235L431.523 74.9066V26.0017C431.523 24.1528 430.908 22.6052 429.657 21.3324C428.405 20.0624 426.925 19.4155 425.172 19.4155C423.418 19.4155 421.871 20.0624 420.616 21.3324C419.364 22.6025 418.75 24.1528 418.75 26.0017V113.13C418.75 114.931 419.364 116.482 420.616 117.775C421.868 119.069 423.371 119.716 425.172 119.716C426.972 119.716 428.428 119.069 429.657 117.775C430.908 116.482 431.523 114.931 431.523 113.13V90.5038L438.992 85.4889L467.251 118.006C468.39 119.137 469.825 119.692 471.532 119.692C472.42 119.692 473.262 119.53 474.035 119.184C474.809 118.859 475.494 118.375 476.061 117.775C476.631 117.176 477.085 116.482 477.428 115.672C477.77 114.887 477.951 114.031 477.951 113.177C477.951 111.467 477.36 109.94 476.173 108.602L449.873 78.2586L475.489 61.2027C477.127 60.0714 477.924 58.3378 477.924 56.0019V56.0491L477.927 56.0438Z" fill="white"/>
<path d="M369.656 69.0562C371.614 67.0685 373.893 65.4973 376.512 64.3634C379.131 63.2085 381.909 62.6298 384.891 62.6298C387.578 62.6298 390.061 63.0933 392.361 64.0151C394.637 64.9395 396.825 66.3039 398.895 68.082C400.123 69.0745 401.513 69.5825 403.061 69.5825C404.906 69.5825 406.409 68.9593 407.616 67.7101C408.824 66.461 409.414 64.8897 409.414 63.0174C409.414 61.145 408.685 59.4113 407.206 58.0732C400.92 52.3879 393.477 49.5439 384.891 49.5439C375.44 49.5439 367.359 52.964 360.663 59.8277C353.967 66.6679 350.645 74.9431 350.645 84.6481C350.645 94.3532 353.993 102.605 360.663 109.469C367.359 116.309 375.419 119.752 384.891 119.752C393.453 119.752 400.899 116.911 407.206 111.223C408.549 109.838 409.234 108.243 409.234 106.394C409.234 104.545 408.641 102.95 407.436 101.725C406.228 100.499 404.705 99.8761 402.883 99.8761C401.336 99.9232 399.99 100.384 398.853 101.261C396.804 103.063 394.663 104.404 392.363 105.305C390.087 106.206 387.604 106.646 384.894 106.646C381.911 106.646 379.133 106.067 376.514 104.912C373.896 103.757 371.619 102.186 369.659 100.222C367.701 98.2577 366.151 95.9008 365.035 93.2428C363.919 90.5612 363.35 87.6963 363.35 84.6455C363.35 81.5947 363.919 78.7298 365.035 76.0482C366.151 73.3666 367.699 71.0569 369.659 69.0693V69.0457L369.656 69.0562Z" fill="white"/>
</g>
<defs>
<clipPath id="clip0_451_412">
<rect width="610" height="139" fill="white"/>
</clipPath>
</defs>
</svg>
