<svg width="408" height="64" viewBox="0 0 408 64" fill="none" xmlns="http://www.w3.org/2000/svg">
<path d="M47.9925 16.7615H50.2988L56.8727 10.1876L57.195 7.39548C44.9598 -3.40515 26.2868 -2.23837 15.4862 9.9969C12.4852 13.3928 10.3106 17.4379 9.12109 21.8145C9.85203 21.5148 10.6647 21.4649 11.4274 21.6783L24.5752 19.5082C24.5752 19.5082 25.2426 18.4004 25.5922 18.4685C31.4397 12.0444 41.2824 11.2953 48.0379 16.7615H47.9925Z" fill="#EA4335"/>
<path d="M66.2389 21.8144C64.7271 16.2483 61.6263 11.2453 57.3133 7.42261L48.088 16.6479C51.9834 19.8304 54.2034 24.6292 54.1081 29.6595V31.2984C58.6435 31.2984 62.3209 34.9758 62.3209 39.5112C62.3209 44.0467 58.6435 47.7241 54.1081 47.7241H37.6824L36.0435 49.3857V59.2375L37.6824 60.8764H54.1081C65.903 60.9672 75.5414 51.4786 75.6322 39.6838C75.6866 32.5197 72.1591 25.8186 66.2389 21.8144Z" fill="#4285F4"/>
<path d="M21.2339 60.7721H37.6596V47.6243H21.2339C20.0626 47.6243 18.9094 47.3701 17.8425 46.8843L15.5362 47.6016L8.91691 54.1755L8.34033 56.4818C12.0495 59.2875 16.5804 60.7948 21.2339 60.7721Z" fill="#34A853"/>
<path d="M21.2339 18.1235C9.43446 18.1916 -0.0677361 27.8118 0.000363764 39.6112C0.0412237 46.1988 3.1148 52.4004 8.34032 56.4137L17.8652 46.8888C13.7338 45.0229 11.8951 40.156 13.7611 36.0246C15.627 31.8933 20.4939 30.0546 24.6253 31.9205C26.4458 32.7422 27.9031 34.2041 28.7294 36.0246L38.2543 26.4997C34.2046 21.197 27.9031 18.0962 21.2339 18.1235Z" fill="#FBBC05"/>
<path d="M119.361 51.5922C113.645 51.6649 108.152 49.4085 104.138 45.3407C99.9934 41.4454 97.678 35.9883 97.7507 30.2997C97.6826 24.6111 99.998 19.1586 104.138 15.2587C108.134 11.15 113.632 8.84825 119.361 8.89365C124.818 8.82101 130.08 10.9412 133.962 14.7775L129.857 18.9543C127.047 16.2348 123.27 14.7457 119.361 14.8002C115.261 14.7502 111.325 16.4255 108.52 19.4128C105.605 22.3048 103.998 26.2636 104.066 30.3678C104.029 34.4265 105.637 38.3264 108.52 41.1866C114.458 47.1067 124.033 47.2202 130.112 41.4408C131.923 39.4614 133.031 36.9372 133.272 34.2676H119.429V28.3657H139.015C139.205 29.5551 139.282 30.7582 139.246 31.9659C139.491 37.0007 137.666 41.9175 134.193 45.5768C130.33 49.5946 124.936 51.7829 119.361 51.5922ZM164.897 47.6697C159.435 52.9043 150.819 52.9043 145.357 47.6697C142.71 45.1046 141.266 41.5498 141.366 37.8679C141.266 34.1859 142.715 30.6311 145.357 28.066C150.823 22.845 159.431 22.845 164.897 28.066C167.539 30.6311 168.988 34.1859 168.888 37.8679C168.983 41.5543 167.526 45.1091 164.874 47.6697H164.897ZM149.67 43.8198C152.489 46.8343 157.22 46.9887 160.235 44.1648C160.353 44.0513 160.471 43.9378 160.58 43.8198C162.119 42.2262 162.949 40.0834 162.886 37.8679C162.954 35.6478 162.123 33.4913 160.58 31.8932C157.679 28.8696 152.875 28.7652 149.847 31.6662C149.77 31.7389 149.693 31.8161 149.62 31.8932C148.076 33.4913 147.246 35.6478 147.314 37.8679C147.255 40.0834 148.095 42.2308 149.643 43.8198H149.67ZM194.929 47.6697C189.468 52.9043 180.851 52.9043 175.389 47.6697C172.742 45.1046 171.298 41.5498 171.398 37.8679C171.298 34.1859 172.747 30.6311 175.389 28.066C180.851 22.8314 189.468 22.8314 194.929 28.066C197.571 30.6311 199.02 34.1859 198.92 37.8679C199.024 41.5498 197.576 45.1046 194.929 47.6697ZM179.707 43.8198C182.526 46.8343 187.257 46.9887 190.271 44.1648C190.389 44.0513 190.507 43.9378 190.616 43.8198C192.155 42.2262 192.986 40.0834 192.922 37.8679C192.991 35.6478 192.16 33.4913 190.616 31.8932C187.715 28.8696 182.912 28.7652 179.888 31.6662C179.811 31.7389 179.734 31.8161 179.661 31.8932C178.118 33.4913 177.287 35.6478 177.355 37.8679C177.296 40.0834 178.136 42.2308 179.684 43.8198H179.707ZM214.674 63.9092C211.909 63.9955 209.198 63.1329 206.992 61.4622C205.034 59.9897 203.491 58.0343 202.515 55.7872L207.773 53.5944C208.345 54.9382 209.239 56.1186 210.379 57.0311C211.595 58.0118 213.125 58.5293 214.692 58.4839C216.698 58.6065 218.66 57.8483 220.067 56.4092C221.456 54.7339 222.142 52.582 221.983 50.4118V48.4279H221.774C219.99 50.5435 217.316 51.6967 214.555 51.5423C211.055 51.5514 207.709 50.0986 205.33 47.529C202.752 44.982 201.326 41.4908 201.385 37.8633C201.321 34.2177 202.747 30.7038 205.33 28.1296C207.705 25.5509 211.051 24.0845 214.555 24.0935C216.022 24.089 217.475 24.4159 218.8 25.0379C219.949 25.5372 220.971 26.2863 221.801 27.2307H222.01V25.0379H227.731V49.6037C228.035 53.5308 226.709 57.4125 224.062 60.3317C221.543 62.7425 218.16 64.0318 214.674 63.9092ZM215.091 46.1942C217.084 46.2396 218.996 45.3906 220.303 43.8879C221.724 42.258 222.478 40.1469 222.401 37.9814C222.487 35.7795 221.738 33.632 220.303 31.9613C218.996 30.4541 217.084 29.6096 215.091 29.655C213.044 29.6142 211.078 30.4541 209.693 31.9613C208.168 33.573 207.337 35.7204 207.387 37.936C207.341 40.1333 208.168 42.258 209.693 43.8425C211.069 45.3634 213.035 46.2214 215.091 46.1942ZM237.905 10.4418V50.7614H231.885V10.4418H237.905ZM254.421 51.5922C250.776 51.6876 247.257 50.2575 244.71 47.647C242.127 45.0592 240.715 41.5225 240.81 37.8679C240.674 34.2041 242.032 30.6402 244.569 27.9934C246.966 25.4691 250.317 24.0708 253.795 24.1389C255.379 24.1208 256.945 24.4295 258.407 25.0379C259.724 25.569 260.922 26.3544 261.935 27.3442C262.806 28.1841 263.578 29.1193 264.241 30.1363C264.777 30.9943 265.231 31.8978 265.603 32.833L266.225 34.4038L247.775 41.9947C248.919 44.6188 251.556 46.2714 254.417 46.1488C257.181 46.1579 259.747 44.7096 261.177 42.3443L265.789 45.4587C264.612 47.1447 263.105 48.5735 261.358 49.6582C259.288 50.9657 256.873 51.6376 254.421 51.5922ZM246.717 37.4502L258.988 32.3518C258.612 31.4529 257.935 30.7128 257.072 30.2543C256.11 29.7095 255.02 29.4326 253.913 29.4462C252.038 29.4961 250.253 30.2815 248.955 31.639C247.38 33.1463 246.558 35.2755 246.717 37.4502Z" fill="white"/>
<path d="M297.764 51.5924C287.268 51.774 278.615 43.4113 278.433 32.9149C278.429 32.6606 278.429 32.4018 278.438 32.1476C278.193 21.6511 286.505 12.948 296.997 12.7028C297.251 12.6983 297.51 12.6983 297.764 12.6983C303.013 12.5349 308.052 14.7776 311.443 18.7864L308.12 22.0143C305.628 18.8772 301.787 17.1202 297.787 17.2837C293.951 17.1974 290.242 18.682 287.522 21.3878C284.694 24.2344 283.182 28.1297 283.345 32.1385C283.177 36.1473 284.694 40.0426 287.522 42.8892C290.242 45.5996 293.951 47.0796 297.787 46.9934C302.254 47.0433 306.499 45.0548 309.319 41.5953L312.642 44.9186C310.903 46.9979 308.719 48.6595 306.254 49.7855C303.594 51.0203 300.693 51.6378 297.764 51.5924Z" fill="white"/>
<path d="M321.568 50.7615H316.792V13.5063H321.568V50.7615Z" fill="white"/>
<path d="M329.367 28.3385C334.575 23.1674 342.983 23.1674 348.19 28.3385C350.66 30.949 351.99 34.4357 351.881 38.0268C351.99 41.618 350.66 45.1047 348.19 47.7152C342.983 52.8862 334.575 52.8862 329.367 47.7152C326.897 45.1047 325.567 41.618 325.676 38.0268C325.567 34.4357 326.893 30.949 329.367 28.3385ZM332.917 44.7188C335.973 47.9467 341.067 48.0874 344.299 45.032C344.408 44.9321 344.513 44.8232 344.612 44.7188C346.297 42.9119 347.187 40.5011 347.082 38.0314C347.191 35.5616 346.301 33.1509 344.612 31.344C341.557 28.116 336.463 27.9753 333.231 31.0307C333.122 31.1306 333.017 31.2395 332.917 31.344C331.233 33.1509 330.343 35.5616 330.448 38.0314C330.352 40.4966 331.251 42.8982 332.94 44.6961L332.917 44.7188Z" fill="white"/>
<path d="M378.336 50.7614H373.723V47.2339H373.587C372.765 48.5731 371.603 49.6718 370.218 50.4164C368.784 51.2472 367.149 51.6876 365.488 51.683C362.755 51.8692 360.09 50.7977 358.246 48.7774C356.499 46.5665 355.622 43.7925 355.777 40.9823V25.2966H360.553V40.1061C360.553 44.8594 362.65 47.2339 366.85 47.2339C368.743 47.2929 370.545 46.4348 371.694 44.9275C372.933 43.3612 373.592 41.4136 373.564 39.416V25.2966H378.34V50.7614H378.336Z" fill="white"/>
<path d="M394.553 51.5923C391.275 51.6014 388.156 50.1804 386.018 47.6925C383.625 45.0502 382.345 41.5907 382.44 38.0268C382.345 34.4629 383.625 31.0035 386.018 28.3612C388.156 25.8778 391.275 24.4523 394.553 24.4613C396.369 24.4341 398.162 24.8609 399.765 25.7053C401.177 26.4135 402.371 27.4895 403.224 28.8197H403.433L403.224 25.2922V13.5063H408V50.7615H403.388V47.2339H403.179C402.325 48.5641 401.131 49.6401 399.719 50.3483C398.13 51.1837 396.355 51.615 394.553 51.5923ZM395.338 47.2339C397.522 47.2657 399.615 46.3577 401.081 44.7415C402.702 42.8937 403.533 40.483 403.388 38.0268C403.533 35.5752 402.702 33.16 401.081 31.3122C398.185 28.1251 393.254 27.8936 390.067 30.7946C389.886 30.9581 389.713 31.1351 389.55 31.3122C387.924 33.1463 387.094 35.5525 387.243 37.9996C387.094 40.4466 387.924 42.8528 389.55 44.687C391.021 46.3395 393.132 47.2657 395.338 47.2339Z" fill="white"/>
</svg>
