<svg width="505" height="135" viewBox="0 0 505 135" fill="none" xmlns="http://www.w3.org/2000/svg">
<path d="M464.608 75.824V40.624H451.296V31.024H489.12V40.624H475.488V75.824H464.608Z" fill="#A3CE14"/>
<path d="M411.193 75.824V31.024H431.353C434.211 31.024 436.793 31.6427 439.097 32.88C441.443 34.1173 443.278 35.824 444.601 38C445.923 40.1333 446.585 42.5653 446.585 45.296C446.585 48.112 445.923 50.6507 444.601 52.912C443.278 55.1307 441.465 56.88 439.161 58.16C436.857 59.44 434.254 60.08 431.353 60.08H421.561V75.824H411.193ZM436.025 75.824L424.633 55.6L435.769 54L448.441 75.824H436.025ZM421.561 51.76H430.393C431.502 51.76 432.462 51.5253 433.273 51.056C434.126 50.544 434.766 49.84 435.193 48.944C435.662 48.048 435.897 47.024 435.897 45.872C435.897 44.72 435.641 43.7173 435.129 42.864C434.617 41.968 433.87 41.2853 432.889 40.816C431.95 40.3467 430.798 40.112 429.433 40.112H421.561V51.76Z" fill="#A3CE14"/>
<path d="M381.135 76.208C377.423 76.208 374.116 75.4613 371.215 73.968C368.314 72.432 366.031 70.3413 364.367 67.696C362.746 65.0507 361.935 62.0213 361.935 58.608V31.024H372.943V58.032C372.943 59.6533 373.306 61.1253 374.031 62.448C374.756 63.728 375.738 64.752 376.975 65.52C378.212 66.2453 379.599 66.608 381.135 66.608C382.756 66.608 384.186 66.2453 385.423 65.52C386.703 64.752 387.727 63.728 388.495 62.448C389.263 61.1253 389.647 59.6533 389.647 58.032V31.024H400.271V58.608C400.271 62.0213 399.439 65.0507 397.775 67.696C396.154 70.3413 393.892 72.432 390.991 73.968C388.09 75.4613 384.804 76.208 381.135 76.208Z" fill="#A3CE14"/>
<path d="M330.734 76.464C327.32 76.464 324.206 75.888 321.39 74.736C318.574 73.584 316.12 71.9627 314.03 69.872C311.939 67.7813 310.318 65.328 309.166 62.512C308.014 59.696 307.438 56.6027 307.438 53.232C307.438 49.8613 308.014 46.768 309.166 43.952C310.318 41.136 311.939 38.6827 314.03 36.592C316.12 34.5013 318.574 32.88 321.39 31.728C324.206 30.576 327.299 30 330.67 30C334.04 30 337.134 30.576 339.95 31.728C342.766 32.88 345.219 34.5013 347.31 36.592C349.4 38.6827 351 41.136 352.11 43.952C353.262 46.768 353.838 49.8613 353.838 53.232C353.838 56.56 353.262 59.6533 352.11 62.512C351 65.328 349.4 67.7813 347.31 69.872C345.219 71.9627 342.766 73.584 339.95 74.736C337.134 75.888 334.062 76.464 330.734 76.464ZM330.67 66.224C332.419 66.224 334.019 65.904 335.47 65.264C336.963 64.624 338.243 63.728 339.31 62.576C340.419 61.3813 341.272 59.9947 341.87 58.416C342.467 56.8373 342.766 55.1093 342.766 53.232C342.766 51.3547 342.467 49.6267 341.87 48.048C341.272 46.4693 340.419 45.104 339.31 43.952C338.243 42.7573 336.963 41.84 335.47 41.2C334.019 40.56 332.419 40.24 330.67 40.24C328.92 40.24 327.299 40.56 325.806 41.2C324.355 41.84 323.075 42.7573 321.965 43.952C320.856 45.104 320.003 46.4693 319.406 48.048C318.851 49.6267 318.574 51.3547 318.574 53.232C318.574 55.1093 318.851 56.8587 319.406 58.48C320.003 60.0587 320.856 61.424 321.965 62.576C323.075 63.728 324.355 64.624 325.806 65.264C327.299 65.904 328.92 66.224 330.67 66.224Z" fill="#A3CE14"/>
<path d="M286.232 76.464C282.861 76.464 279.747 75.9093 276.888 74.8C274.072 73.648 271.619 72.048 269.528 70C267.437 67.9093 265.816 65.456 264.664 62.64C263.555 59.7813 263 56.6453 263 53.232C263 49.904 263.597 46.832 264.792 44.016C265.987 41.2 267.629 38.768 269.72 36.72C271.853 34.6293 274.349 33.008 277.208 31.856C280.109 30.704 283.267 30.128 286.68 30.128C288.813 30.128 290.904 30.4053 292.952 30.96C295 31.5147 296.899 32.3467 298.648 33.456C300.44 34.5227 301.976 35.8027 303.256 37.296L296.6 44.912C295.704 43.9733 294.744 43.1627 293.72 42.48C292.739 41.7547 291.651 41.2 290.456 40.816C289.261 40.432 287.981 40.24 286.616 40.24C284.909 40.24 283.288 40.56 281.752 41.2C280.259 41.7973 278.936 42.672 277.784 43.824C276.675 44.9333 275.8 46.2987 275.16 47.92C274.52 49.5413 274.2 51.3547 274.2 53.36C274.2 55.3227 274.52 57.1147 275.16 58.736C275.8 60.3147 276.696 61.68 277.848 62.832C279 63.984 280.387 64.8587 282.008 65.456C283.672 66.0533 285.507 66.352 287.512 66.352C288.877 66.352 290.179 66.16 291.416 65.776C292.653 65.392 293.784 64.88 294.808 64.24C295.875 63.5573 296.813 62.7893 297.624 61.936L302.872 70.256C301.805 71.4507 300.376 72.5173 298.584 73.456C296.835 74.3947 294.872 75.1413 292.696 75.696C290.563 76.208 288.408 76.464 286.232 76.464Z" fill="#A3CE14"/>
<path d="M336.136 113.4V102.232L336.36 103.8L327.304 91H333.48L340.392 100.92L337.576 100.824L343.816 91H349.8L341.128 104.152L341.608 101.976V113.4H336.136Z" fill="#A3CE14"/>
<path d="M307.84 113.4L316.704 91H321.312L330.112 113.4H324.608L320.384 102.04C320.213 101.592 320.042 101.112 319.872 100.6C319.701 100.088 319.53 99.5653 319.36 99.032C319.189 98.4773 319.018 97.944 318.848 97.432C318.698 96.8987 318.57 96.408 318.464 95.96L319.424 95.928C319.296 96.4613 319.146 96.984 318.976 97.496C318.826 98.008 318.666 98.52 318.496 99.032C318.346 99.5227 318.176 100.024 317.984 100.536C317.792 101.027 317.61 101.539 317.44 102.072L313.216 113.4H307.84ZM312.064 109.112L313.76 105.016H324.064L325.728 109.112H312.064Z" fill="#A3CE14"/>
<path d="M291.188 113.4V91H296.628V108.6H306.612V113.4H291.188Z" fill="#A3CE14"/>
<path d="M270 113.4V91H279.664C281.072 91 282.32 91.32 283.408 91.96C284.517 92.6 285.392 93.4747 286.032 94.584C286.693 95.6933 287.024 96.9413 287.024 98.328C287.024 99.7787 286.693 101.08 286.032 102.232C285.392 103.363 284.517 104.259 283.408 104.92C282.32 105.581 281.072 105.912 279.664 105.912H275.44V113.4H270ZM275.344 101.144H278.896C279.365 101.144 279.792 101.027 280.176 100.792C280.56 100.557 280.869 100.237 281.104 99.832C281.339 99.4267 281.456 98.9573 281.456 98.424C281.456 97.8693 281.339 97.4 281.104 97.016C280.869 96.632 280.56 96.3333 280.176 96.12C279.792 95.9067 279.365 95.8 278.896 95.8H275.344V101.144Z" fill="#A3CE14"/>
<path d="M118.16 37.25C105.39 25.31 90.46 15 69.77 15C38.53 15 15 35.83 15 68.23C15 91.67 26.11 106.69 41.21 114.23L61.43 94.01C48.94 90.64 43.54 78.01 43.54 66.72C43.54 52.84 53.54 40.5 69.38 40.5C81.83 40.5 91.61 46.38 100.61 54.83L118.17 37.25H118.16ZM186.25 15C162.84 15 146.67 28.35 133.74 41.19C131.74 43.19 129.86 45.12 128.02 47.01L111.82 66.68C105.2 73.84 95.82 84.45 84.63 90.4L56.04 118.99C59.5562 119.608 63.1199 119.916 66.69 119.91C94.46 119.91 113.36 100.62 126.09 87.51L143.44 67.45C155.77 54.34 168.13 40.07 184.71 40.07C201.71 40.07 208.62 52.8 208.62 66.68C208.62 80.56 199.37 94.07 183.55 94.07C171.42 94.07 162.55 87.57 154.43 79.39L135.88 97.94C147.44 109.31 162.5 119.94 184.33 119.94C213.64 119.94 236.78 99.11 236.78 68.26C236.77 31.2 213.64 15 186.25 15Z" fill="#A3CE14"/>
</svg>
