<svg width="285" height="284" viewBox="0 0 285 284" fill="none" xmlns="http://www.w3.org/2000/svg">
<path d="M241.809 219V179.4H226.833V168.6H269.385V179.4H254.049V219H241.809Z" fill="#A3CE14"/>
<path d="M181.717 219V168.6H204.397C207.613 168.6 210.517 169.296 213.109 170.688C215.749 172.08 217.813 174 219.301 176.448C220.789 178.848 221.533 181.584 221.533 184.656C221.533 187.824 220.789 190.68 219.301 193.224C217.813 195.72 215.773 197.688 213.181 199.128C210.589 200.568 207.661 201.288 204.397 201.288H193.381V219H181.717ZM209.653 219L196.837 196.248L209.365 194.448L223.621 219H209.653ZM193.381 191.928H203.317C204.565 191.928 205.645 191.664 206.557 191.136C207.517 190.56 208.237 189.768 208.717 188.76C209.245 187.752 209.509 186.6 209.509 185.304C209.509 184.008 209.221 182.88 208.645 181.92C208.069 180.912 207.229 180.144 206.125 179.616C205.069 179.088 203.773 178.824 202.237 178.824H193.381V191.928Z" fill="#A3CE14"/>
<path d="M147.902 219.432C143.726 219.432 140.006 218.592 136.742 216.912C133.478 215.184 130.91 212.832 129.038 209.856C127.214 206.88 126.302 203.472 126.302 199.632V168.6H138.686V198.984C138.686 200.808 139.094 202.464 139.91 203.952C140.726 205.392 141.83 206.544 143.222 207.408C144.614 208.224 146.174 208.632 147.902 208.632C149.726 208.632 151.334 208.224 152.726 207.408C154.166 206.544 155.318 205.392 156.182 203.952C157.046 202.464 157.478 200.808 157.478 198.984V168.6H169.43V199.632C169.43 203.472 168.494 206.88 166.622 209.856C164.798 212.832 162.254 215.184 158.99 216.912C155.726 218.592 152.03 219.432 147.902 219.432Z" fill="#A3CE14"/>
<path d="M91.2002 219.72C87.3602 219.72 83.8562 219.072 80.6882 217.776C77.5202 216.48 74.7602 214.656 72.4082 212.304C70.0562 209.952 68.2322 207.192 66.9362 204.024C65.6402 200.856 64.9922 197.376 64.9922 193.584C64.9922 189.792 65.6402 186.312 66.9362 183.144C68.2322 179.976 70.0562 177.216 72.4082 174.864C74.7602 172.512 77.5202 170.688 80.6882 169.392C83.8562 168.096 87.3362 167.448 91.1282 167.448C94.9202 167.448 98.4002 168.096 101.568 169.392C104.736 170.688 107.496 172.512 109.848 174.864C112.2 177.216 114 179.976 115.248 183.144C116.544 186.312 117.192 189.792 117.192 193.584C117.192 197.328 116.544 200.808 115.248 204.024C114 207.192 112.2 209.952 109.848 212.304C107.496 214.656 104.736 216.48 101.568 217.776C98.4002 219.072 94.9442 219.72 91.2002 219.72ZM91.1282 208.2C93.0962 208.2 94.8962 207.84 96.5282 207.12C98.2082 206.4 99.6482 205.392 100.848 204.096C102.096 202.752 103.056 201.192 103.728 199.416C104.4 197.64 104.736 195.696 104.736 193.584C104.736 191.472 104.4 189.528 103.728 187.752C103.056 185.976 102.096 184.44 100.848 183.144C99.6482 181.8 98.2082 180.768 96.5282 180.048C94.8962 179.328 93.0962 178.968 91.1282 178.968C89.1602 178.968 87.3362 179.328 85.6562 180.048C84.0242 180.768 82.5842 181.8 81.3362 183.144C80.0882 184.44 79.1282 185.976 78.4562 187.752C77.8322 189.528 77.5202 191.472 77.5202 193.584C77.5202 195.696 77.8322 197.664 78.4562 199.488C79.1282 201.264 80.0882 202.8 81.3362 204.096C82.5842 205.392 84.0242 206.4 85.6562 207.12C87.3362 207.84 89.1602 208.2 91.1282 208.2Z" fill="#A3CE14"/>
<path d="M41.136 219.72C37.344 219.72 33.84 219.096 30.624 217.848C27.456 216.552 24.696 214.752 22.344 212.448C19.992 210.096 18.168 207.336 16.872 204.168C15.624 200.952 15 197.424 15 193.584C15 189.84 15.672 186.384 17.016 183.216C18.36 180.048 20.208 177.312 22.56 175.008C24.96 172.656 27.768 170.832 30.984 169.536C34.248 168.24 37.8 167.592 41.64 167.592C44.04 167.592 46.392 167.904 48.696 168.528C51 169.152 53.136 170.088 55.104 171.336C57.12 172.536 58.848 173.976 60.288 175.656L52.8 184.224C51.792 183.168 50.712 182.256 49.56 181.488C48.456 180.672 47.232 180.048 45.888 179.616C44.544 179.184 43.104 178.968 41.568 178.968C39.648 178.968 37.824 179.328 36.096 180.048C34.416 180.72 32.928 181.704 31.632 183C30.384 184.248 29.4 185.784 28.68 187.608C27.96 189.432 27.6 191.472 27.6 193.728C27.6 195.936 27.96 197.952 28.68 199.776C29.4 201.552 30.408 203.088 31.704 204.384C33 205.68 34.56 206.664 36.384 207.336C38.256 208.008 40.32 208.344 42.576 208.344C44.112 208.344 45.576 208.128 46.968 207.696C48.36 207.264 49.632 206.688 50.784 205.968C51.984 205.2 53.04 204.336 53.952 203.376L59.856 212.736C58.656 214.08 57.048 215.28 55.032 216.336C53.064 217.392 50.856 218.232 48.408 218.856C46.008 219.432 43.584 219.72 41.136 219.72Z" fill="#A3CE14"/>
<path d="M176.094 269V255.04L176.374 257L165.054 241H172.774L181.414 253.4L177.894 253.28L185.694 241H193.174L182.334 257.44L182.934 254.72V269H176.094Z" fill="#A3CE14"/>
<path d="M140.723 269L151.803 241H157.563L168.563 269H161.683L156.403 254.8C156.19 254.24 155.977 253.64 155.763 253C155.55 252.36 155.337 251.707 155.123 251.04C154.91 250.347 154.697 249.68 154.483 249.04C154.297 248.373 154.137 247.76 154.003 247.2L155.203 247.16C155.043 247.827 154.857 248.48 154.643 249.12C154.457 249.76 154.257 250.4 154.043 251.04C153.857 251.653 153.643 252.28 153.403 252.92C153.163 253.533 152.937 254.173 152.723 254.84L147.443 269H140.723ZM146.003 263.64L148.123 258.52H161.003L163.083 263.64H146.003Z" fill="#A3CE14"/>
<path d="M119.908 269V241H126.708V263H139.188V269H119.908Z" fill="#A3CE14"/>
<path d="M93.4241 269V241H105.504C107.264 241 108.824 241.4 110.184 242.2C111.571 243 112.664 244.093 113.464 245.48C114.291 246.867 114.704 248.427 114.704 250.16C114.704 251.973 114.291 253.6 113.464 255.04C112.664 256.453 111.571 257.573 110.184 258.4C108.824 259.227 107.264 259.64 105.504 259.64H100.224V269H93.4241ZM100.104 253.68H104.544C105.131 253.68 105.664 253.533 106.144 253.24C106.624 252.947 107.011 252.547 107.304 252.04C107.597 251.533 107.744 250.947 107.744 250.28C107.744 249.587 107.597 249 107.304 248.52C107.011 248.04 106.624 247.667 106.144 247.4C105.664 247.133 105.131 247 104.544 247H100.104V253.68Z" fill="#A3CE14"/>
<path d="M127.064 37.25C114.294 25.31 99.364 15 78.674 15C47.434 15 23.9041 35.83 23.9041 68.23C23.9041 91.67 35.014 106.69 50.114 114.23L70.334 94.01C57.844 90.64 52.444 78.01 52.444 66.72C52.444 52.84 62.444 40.5 78.284 40.5C90.734 40.5 100.514 46.38 109.514 54.83L127.074 37.25H127.064ZM195.154 15C171.744 15 155.574 28.35 142.644 41.19C140.644 43.19 138.764 45.12 136.924 47.01L120.724 66.68C114.104 73.84 104.724 84.45 93.534 90.4L64.944 118.99C68.4603 119.608 72.024 119.916 75.5941 119.91C103.364 119.91 122.264 100.62 134.994 87.51L152.344 67.45C164.674 54.34 177.034 40.07 193.614 40.07C210.614 40.07 217.524 52.8 217.524 66.68C217.524 80.56 208.274 94.07 192.454 94.07C180.324 94.07 171.454 87.57 163.334 79.39L144.784 97.94C156.344 109.31 171.404 119.94 193.234 119.94C222.544 119.94 245.684 99.11 245.684 68.26C245.674 31.2 222.544 15 195.154 15Z" fill="#A3CE14"/>
</svg>
