<svg width="252" height="135" viewBox="0 0 252 135" fill="none" xmlns="http://www.w3.org/2000/svg">
<path d="M118.16 37.25C105.39 25.31 90.46 15 69.77 15C38.53 15 15 35.83 15 68.23C15 91.67 26.11 106.69 41.21 114.23L61.43 94.01C48.94 90.64 43.54 78.01 43.54 66.72C43.54 52.84 53.54 40.5 69.38 40.5C81.83 40.5 91.61 46.38 100.61 54.83L118.17 37.25H118.16ZM186.25 15C162.84 15 146.67 28.35 133.74 41.19C131.74 43.19 129.86 45.12 128.02 47.01L111.82 66.68C105.2 73.84 95.82 84.45 84.63 90.4L56.04 118.99C59.5562 119.608 63.1199 119.916 66.69 119.91C94.46 119.91 113.36 100.62 126.09 87.51L143.44 67.45C155.77 54.34 168.13 40.07 184.71 40.07C201.71 40.07 208.62 52.8 208.62 66.68C208.62 80.56 199.37 94.07 183.55 94.07C171.42 94.07 162.55 87.57 154.43 79.39L135.88 97.94C147.44 109.31 162.5 119.94 184.33 119.94C213.64 119.94 236.78 99.11 236.78 68.26C236.77 31.2 213.64 15 186.25 15Z" fill="#A3CE14"/>
</svg>
