<svg width="867" height="256" viewBox="0 0 867 256" fill="none" xmlns="http://www.w3.org/2000/svg">
<path d="M43.6728 187.802L21.9548 200.685C19.0122 202.624 20.3555 205.952 21.9548 206.624L106.287 253.901C108.748 255.275 111.52 255.996 114.338 255.996C117.156 255.996 119.928 255.275 122.389 253.901L207.834 205.997C210.425 204.461 210.003 201.344 207.834 200.295L184.875 187.879C182.937 186.599 178.619 187.028 177.09 188.071L122.389 218.733C119.928 220.107 117.156 220.828 114.338 220.828C111.52 220.828 108.748 220.107 106.287 218.733L51.1126 187.802C49.0527 186.535 45.7902 186.605 43.6728 187.802ZM106.287 2.0931C108.748 0.720513 111.518 0 114.335 0C117.152 0 119.922 0.720513 122.382 2.0931L190.293 40.1603C193.006 41.5299 193.255 45.2163 190.293 46.8803L174.832 55.5011C171.97 57.0973 168.747 57.9336 165.47 57.9303C162.194 57.9269 158.973 57.084 156.114 55.4819L122.376 36.5827C119.916 35.2101 117.145 34.4896 114.328 34.4896C111.511 34.4896 108.741 35.2101 106.281 36.5827L72.5108 55.5075C69.6504 57.1113 66.4269 57.9551 63.148 57.9585C59.869 57.9619 56.6438 57.1246 53.7802 55.5267C48.5985 52.6339 42.3166 49.1267 37.7875 46.6115C35.2735 45.5299 34.7553 42.3235 37.7875 40.4867L106.281 2.0867L106.287 2.0931Z" fill="#1A2E44"/>
<path d="M220.622 59.392C223.046 60.7273 225.07 62.6859 226.485 65.0654C227.9 67.445 228.654 70.1593 228.669 72.928V183.066C228.669 188.518 225.26 189.53 221.62 187.629L196.473 174.048V100L122.382 141.536C119.922 142.909 117.152 143.629 114.335 143.629C111.518 143.629 108.747 142.909 106.287 141.536L32.2028 100V174.042L9.3461 187.61C6.62735 189.344 0 189.888 0 183.066V72.928C0 67.3408 3.07059 62.1824 8.0475 59.392C16.063 55.1936 24.3472 59.392 24.3472 59.392L114.335 109.952L204.181 59.392C204.181 59.392 212.165 54.5792 220.622 59.392Z" fill="#22D172"/>
<path fill-rule="evenodd" clip-rule="evenodd" d="M544.512 60.333C541.609 60.333 538.825 61.4867 536.772 63.5403C534.719 65.5939 533.566 68.3792 533.566 71.2834C533.566 74.1876 534.719 76.9729 536.772 79.0265C538.825 81.0801 541.609 82.2338 544.512 82.2338C547.414 82.2338 550.198 81.0801 552.251 79.0265C554.304 76.9729 555.457 74.1876 555.457 71.2834C555.457 68.3792 554.304 65.5939 552.251 63.5403C550.198 61.4867 547.414 60.333 544.512 60.333ZM572.486 60.333C572.344 60.333 572.203 60.361 572.072 60.4153C571.941 60.4697 571.822 60.5494 571.721 60.6498C571.621 60.7502 571.541 60.8695 571.487 61.0007C571.433 61.1319 571.405 61.2726 571.405 61.4146V168.935C571.405 169.53 571.891 170.01 572.492 170.01H589.112C589.398 170.008 589.671 169.893 589.872 169.691C590.074 169.488 590.187 169.214 590.187 168.928V61.4082C590.185 61.1236 590.071 60.8511 589.87 60.6498C589.669 60.4485 589.396 60.3347 589.112 60.333H572.486ZM609.307 60.333C609.165 60.333 609.025 60.361 608.894 60.4153C608.763 60.4697 608.643 60.5494 608.543 60.6498C608.443 60.7502 608.363 60.8695 608.309 61.0007C608.254 61.1319 608.226 61.2726 608.226 61.4146V168.935C608.226 169.53 608.712 170.01 609.314 170.01H625.933C626.219 170.008 626.492 169.893 626.694 169.691C626.895 169.488 627.008 169.214 627.008 168.928V111.565H643.82C644.105 111.565 644.379 111.452 644.582 111.25C644.784 111.049 644.899 110.776 644.901 110.49V94.573C644.899 94.2867 644.785 94.0125 644.582 93.8101C644.38 93.6076 644.106 93.4931 643.82 93.4914H627.008V61.421C627.009 61.279 626.982 61.1382 626.928 61.0066C626.875 60.8751 626.796 60.7554 626.696 60.6543C626.596 60.5533 626.477 60.4729 626.347 60.4178C626.216 60.3627 626.075 60.3338 625.933 60.333H609.307ZM349.452 90.2146C340.655 90.2146 332.218 93.7106 325.996 99.9336C319.775 106.157 316.279 114.597 316.277 123.399V168.928C316.277 169.53 316.764 170.016 317.365 170.016H333.978C334.121 170.017 334.263 169.989 334.395 169.935C334.527 169.881 334.648 169.801 334.749 169.699C334.85 169.598 334.93 169.478 334.984 169.346C335.039 169.213 335.066 169.071 335.065 168.928V123.399C335.145 119.633 336.696 116.048 339.386 113.413C342.076 110.778 345.691 109.302 349.456 109.302C353.22 109.302 356.835 110.778 359.525 113.413C362.216 116.048 363.766 119.633 363.846 123.399V168.928C363.846 169.53 364.326 170.016 364.921 170.016H381.547C381.689 170.016 381.83 169.988 381.962 169.933C382.093 169.879 382.213 169.798 382.313 169.697C382.414 169.596 382.493 169.476 382.547 169.344C382.601 169.212 382.628 169.071 382.628 168.928V123.399C382.628 119.579 384.144 115.917 386.843 113.216C389.543 110.516 393.204 108.999 397.021 108.999C400.838 108.999 404.499 110.516 407.199 113.216C409.898 115.917 411.414 119.579 411.414 123.399V168.928C411.414 169.53 411.894 170.016 412.489 170.016H429.109C429.252 170.017 429.393 169.989 429.526 169.935C429.658 169.881 429.778 169.801 429.88 169.699C429.981 169.598 430.061 169.478 430.115 169.346C430.169 169.213 430.197 169.071 430.196 168.928V123.399C430.196 116.795 428.226 110.341 424.539 104.864C420.853 99.3858 415.617 95.1328 409.501 92.6486C403.385 90.1644 396.667 89.562 390.207 90.9183C383.747 92.2747 377.838 95.5282 373.237 100.263C370.148 97.0778 366.451 94.547 362.365 92.8208C358.279 91.0946 353.888 90.2083 349.452 90.2146ZM479.453 90.2146C468.777 90.2146 458.537 94.4579 450.988 102.011C443.438 109.564 439.197 119.808 439.197 130.49V132.167C439.197 142.848 443.438 153.092 450.988 160.645C458.537 168.199 468.777 172.442 479.453 172.442C487.437 172.442 494.781 169.645 500.928 165.229V168.928C500.928 169.53 501.415 170.016 502.01 170.016H518.629C518.772 170.017 518.914 169.989 519.046 169.935C519.179 169.881 519.299 169.801 519.4 169.699C519.501 169.598 519.581 169.478 519.636 169.346C519.69 169.213 519.717 169.071 519.717 168.928V130.49C519.717 125.2 518.675 119.963 516.652 115.076C514.628 110.189 511.662 105.749 507.923 102.009C504.185 98.2687 499.746 95.3022 494.861 93.2785C489.976 91.2549 484.741 90.2138 479.453 90.2146ZM731.555 90.2146C720.878 90.2146 710.639 94.4579 703.089 102.011C695.54 109.564 691.298 119.808 691.298 130.49V132.167C691.298 142.848 695.54 153.092 703.089 160.645C710.639 168.199 720.878 172.442 731.555 172.442C739.385 172.442 747.113 168.954 753.037 164.48V168.928C753.037 169.53 753.516 170.016 754.111 170.016H770.737C770.879 170.016 771.02 169.988 771.151 169.933C771.283 169.878 771.402 169.798 771.502 169.697C771.602 169.596 771.681 169.476 771.734 169.344C771.787 169.212 771.814 169.07 771.812 168.928V130.49C771.812 119.808 767.571 109.564 760.021 102.011C752.471 94.4579 742.232 90.2146 731.555 90.2146ZM826.001 90.2146C815.325 90.2146 805.085 94.4579 797.536 102.011C789.986 109.564 785.745 119.808 785.745 130.49V200.64C785.745 201.242 786.224 201.728 786.826 201.728H803.445C803.733 201.727 804.008 201.611 804.21 201.407C804.413 201.203 804.526 200.928 804.526 200.64V166.24C810.617 170.083 817.626 172.221 824.824 172.432C832.021 172.643 839.143 170.918 845.448 167.438C851.753 163.958 857.009 158.85 860.669 152.647C864.329 146.443 866.259 139.37 866.258 132.167V130.49C866.258 119.808 862.017 109.564 854.467 102.011C846.918 94.4579 836.678 90.2146 826.001 90.2146ZM685.592 92.8706C676.105 92.8706 667.006 96.6412 660.297 103.353C653.589 110.065 649.82 119.168 649.82 128.659V168.935C649.82 169.53 650.306 170.01 650.901 170.01H667.521C667.807 170.01 668.082 169.896 668.285 169.693C668.488 169.49 668.602 169.215 668.602 168.928V128.659C668.602 124.151 670.392 119.828 673.578 116.64C676.764 113.452 681.086 111.661 685.592 111.661C685.88 111.66 686.157 111.545 686.36 111.341C686.56 111.138 686.673 110.865 686.673 110.579V93.9522C686.673 93.6654 686.56 93.3902 686.357 93.1874C686.154 92.9846 685.879 92.8706 685.592 92.8706ZM536.387 93.4914C536.244 93.4906 536.102 93.5181 535.97 93.5725C535.838 93.6269 535.718 93.707 535.616 93.8082C535.515 93.9094 535.435 94.0297 535.381 94.162C535.327 94.2944 535.299 94.4363 535.3 94.5794V168.928C535.3 169.53 535.786 170.016 536.387 170.016H553.007C553.149 170.016 553.29 169.988 553.422 169.933C553.554 169.879 553.673 169.798 553.774 169.697C553.874 169.596 553.954 169.476 554.008 169.344C554.061 169.212 554.089 169.071 554.088 168.928V94.573C554.088 94.4304 554.06 94.2893 554.005 94.1576C553.95 94.026 553.87 93.9064 553.769 93.8059C553.668 93.7054 553.548 93.6259 553.416 93.5719C553.284 93.5179 553.143 93.4906 553 93.4914H536.387ZM457.966 130.49C457.966 124.791 460.229 119.325 464.257 115.295C468.285 111.266 473.748 109.002 479.444 109.002C485.14 109.002 490.603 111.266 494.631 115.295C498.659 119.325 500.922 124.791 500.922 130.49V132.167C500.922 137.866 498.659 143.331 494.631 147.361C490.603 151.391 485.14 153.655 479.444 153.655C473.748 153.655 468.285 151.391 464.257 147.361C460.229 143.331 457.966 137.866 457.966 132.167V130.49ZM710.074 130.49C710.074 124.791 712.337 119.325 716.365 115.295C720.393 111.266 725.856 109.002 731.552 109.002C737.248 109.002 742.711 111.266 746.739 115.295C750.767 119.325 753.03 124.791 753.03 130.49V132.167C752.933 137.801 750.627 143.172 746.61 147.123C742.593 151.073 737.185 153.287 731.552 153.287C725.919 153.287 720.511 151.073 716.494 147.123C712.477 143.172 710.171 137.801 710.074 132.167V130.49ZM804.52 130.49C804.52 124.792 806.783 119.327 810.81 115.298C814.837 111.269 820.299 109.005 825.995 109.005C831.69 109.005 837.153 111.269 841.18 115.298C845.207 119.327 847.47 124.792 847.47 130.49V132.167C847.47 137.865 845.207 143.329 841.18 147.359C837.153 151.388 831.69 153.651 825.995 153.651C820.299 153.651 814.837 151.388 810.81 147.359C806.783 143.329 804.52 137.865 804.52 132.167V130.49Z" fill="white"/>
</svg>
