<svg width="400" height="147" viewBox="0 0 400 147" fill="none" xmlns="http://www.w3.org/2000/svg">
<path d="M0 114.041V56.971H13.0003V64.2015C16.2802 58.3425 23.423 55.29 29.8565 55.29C37.3505 55.29 43.9031 58.6942 46.9516 65.3761C51.4114 57.8714 58.0837 55.29 65.458 55.29C75.7684 55.29 85.6011 61.8591 85.6011 76.9883V114.041H72.4884V79.211C72.4884 72.5291 69.0892 67.4859 61.476 67.4859C54.3328 67.4859 49.6484 73.1127 49.6484 80.1463V114.034H36.3039V79.211C36.3039 72.6485 33.01 67.5212 25.2842 67.5212C18.0291 67.5212 13.4568 72.9161 13.4568 80.1815V114.069L0 114.041Z" fill="white"/>
<path d="M102.219 114.041V29.1396H115.809V114.041H102.219Z" fill="white"/>
<path d="M110.352 145.115C113.407 145.966 116.153 146.522 121.982 146.522C132.819 146.522 145.602 140.403 148.966 123.227L162.858 54.3616H183.514L186.036 42.9041H165.169L167.978 29.217C170.128 18.5894 175.999 13.2018 185.425 13.2018C187.876 13.2018 187.188 13.4128 189.372 13.8277L192.392 2.09587C189.484 1.22372 186.879 0.703237 181.204 0.703237C175.212 0.613023 169.363 2.53175 164.586 6.15419C159.298 10.2477 155.807 16.2613 154.213 24.0263L150.301 42.9041H131.829L130.319 54.369H148.018L135.263 118.043C133.859 125.266 129.757 133.904 117.986 133.904C115.317 133.904 116.286 133.7 113.87 133.306L110.352 145.115Z" fill="#0194E2"/>
<path d="M195.749 113.577H182.166L200.785 27.916H214.368L195.749 113.577Z" fill="#0194E2"/>
<path d="M263.511 60.5514C251.656 52.244 235.515 53.8776 225.559 64.3917C215.603 74.9059 214.832 91.134 223.744 102.548L232.643 96.007C228.226 90.5195 227.329 82.9869 230.333 76.613C233.338 70.239 239.715 66.1451 246.753 66.0727V73.0357L263.511 60.5514Z" fill="#43C9ED"/>
<path d="M229.79 108.308C241.645 116.616 257.786 114.982 267.742 104.468C277.698 93.9538 278.469 77.7257 269.557 66.3115L260.658 72.8527C265.075 78.3402 265.972 85.8728 262.968 92.2467C259.963 98.6207 253.586 102.715 246.548 102.787V95.824L229.79 108.308Z" fill="#0194E2"/>
<path d="M286.576 56.9365H301.417L304.436 95.9375L325.57 56.9365L339.659 57.1405L345.193 95.9375L363.812 56.9365L377.395 57.1405L349.218 114.077H335.634L329.088 73.2612L307.457 114.077H293.368L286.576 56.9365Z" fill="#0194E2"/>
<path d="M385.585 57.9492H382.774V56.9717H389.545V57.9702H386.738V66.2136H385.585V57.9492Z" fill="#0194E2"/>
<path d="M391.244 56.9717H392.65L394.418 61.8951C394.646 62.5279 394.855 63.1751 395.072 63.8222H395.138C395.354 63.1751 395.552 62.5279 395.769 61.8951L397.523 56.9717H398.929V66.2136H397.835V61.1145C397.835 60.3056 397.923 59.1943 397.982 58.3711H397.923L397.222 60.4813L395.479 65.2713H394.716L392.951 60.4883L392.25 58.3785H392.195C392.257 59.2013 392.349 60.3126 392.349 61.1215V66.2206H391.281L391.244 56.9717Z" fill="#0194E2"/>
</svg>
