<svg width="400" height="78" viewBox="0 0 400 78" fill="none" xmlns="http://www.w3.org/2000/svg">
<g clip-path="url(#clip0_471_673)">
<path d="M104.232 46.0825C104.645 49.9489 108.153 56.5769 118.332 56.5769C127.205 56.5769 131.47 50.9155 131.47 45.3922C131.47 40.4211 128.099 36.3476 121.428 34.9667L116.612 33.9312C114.756 33.586 113.518 32.5504 113.518 30.8933C113.518 28.9601 115.443 27.5103 117.851 27.5103C121.702 27.5103 123.147 30.0648 123.422 32.0671L131.057 30.341C130.644 26.6818 127.411 20.5371 117.782 20.5371C110.491 20.5371 105.127 25.5772 105.127 31.6527C105.127 36.4166 108.084 40.3521 114.618 41.8019L119.089 42.8376C121.702 43.3899 122.734 44.6328 122.734 46.1516C122.734 47.9467 121.29 49.5347 118.263 49.5347C114.274 49.5347 112.279 47.0491 112.073 44.3564L104.232 46.0825Z" fill="white"/>
<path d="M160.703 55.5419H169.438C169.3 54.3682 169.094 52.0208 169.094 49.3971V21.5732H159.945V41.3192C159.945 45.2547 157.607 48.0163 153.549 48.0163C149.285 48.0163 147.359 44.9784 147.359 41.1811V21.5732H138.211V43.0453C138.211 50.4328 142.888 56.4394 151.073 56.4394C154.649 56.4394 158.571 55.0586 160.428 51.8827C160.428 53.2635 160.565 54.8514 160.703 55.5419Z" fill="white"/>
<path d="M188.004 68.6595V52.2276C189.655 54.5059 193.094 56.3702 197.772 56.3702C207.332 56.3702 213.728 48.7754 213.728 38.4881C213.728 28.4081 208.02 20.8135 198.115 20.8135C193.026 20.8135 189.243 23.0918 187.73 25.7155V21.5729H178.857V68.6595H188.004ZM204.718 38.5572C204.718 44.633 201.004 48.1541 196.327 48.1541C191.651 48.1541 187.867 44.5639 187.867 38.5572C187.867 32.5506 191.651 29.0294 196.327 29.0294C201.004 29.0294 204.718 32.5506 204.718 38.5572Z" fill="white"/>
<path d="M218.908 46.2897C218.908 51.606 223.31 56.5079 230.532 56.5079C235.552 56.5079 238.785 54.1604 240.504 51.4678C240.504 52.7796 240.642 54.6437 240.848 55.5413H249.239C249.033 54.3676 248.828 51.9511 248.828 50.1561V33.4478C248.828 26.6127 244.838 20.5371 234.109 20.5371C225.029 20.5371 220.145 26.4055 219.596 31.7218L227.712 33.4478C227.987 30.4791 230.188 27.9245 234.176 27.9245C238.029 27.9245 239.886 29.9267 239.886 32.3432C239.886 33.5169 239.268 34.4836 237.341 34.7597L229.019 36.0024C223.379 36.831 218.908 40.214 218.908 46.2897ZM232.457 49.6727C229.5 49.6727 228.055 47.7396 228.055 45.7374C228.055 43.1138 229.912 41.8019 232.251 41.4568L239.886 40.2831V41.8019C239.886 47.8087 236.309 49.6727 232.457 49.6727Z" fill="white"/>
<path d="M266.921 55.5411V51.3986C268.708 54.2984 272.285 56.3696 276.962 56.3696C286.592 56.3696 292.92 48.7059 292.92 38.4187C292.92 28.3385 287.211 20.6749 277.306 20.6749C272.285 20.6749 268.571 22.8843 267.058 25.3006V5.55469H258.048V55.5411H266.921ZM283.771 38.4876C283.771 44.7015 280.057 48.1536 275.38 48.1536C270.772 48.1536 266.921 44.6325 266.921 38.4876C266.921 32.2739 270.772 28.8909 275.38 28.8909C280.057 28.8909 283.771 32.2739 283.771 38.4876Z" fill="white"/>
<path d="M298.1 46.2897C298.1 51.606 302.501 56.5079 309.723 56.5079C314.743 56.5079 317.977 54.1604 319.695 51.4678C319.695 52.7796 319.834 54.6437 320.04 55.5413H328.431C328.226 54.3676 328.019 51.9511 328.019 50.1561V33.4478C328.019 26.6127 324.029 20.5371 313.3 20.5371C304.221 20.5371 299.337 26.4055 298.787 31.7218L306.902 33.4478C307.178 30.4791 309.379 27.9245 313.368 27.9245C317.22 27.9245 319.077 29.9267 319.077 32.3432C319.077 33.5169 318.458 34.4836 316.532 34.7597L308.21 36.0024C302.571 36.831 298.1 40.214 298.1 46.2897ZM311.649 49.6727C308.692 49.6727 307.247 47.7396 307.247 45.7374C307.247 43.1138 309.103 41.8019 311.443 41.4568L319.077 40.2831V41.8019C319.077 47.8087 315.501 49.6727 311.649 49.6727Z" fill="white"/>
<path d="M334.352 46.0825C334.763 49.9489 338.272 56.5769 348.451 56.5769C357.324 56.5769 361.587 50.9155 361.587 45.3922C361.587 40.4211 358.218 36.3476 351.546 34.9667L346.731 33.9312C344.874 33.586 343.637 32.5504 343.637 30.8933C343.637 28.9601 345.562 27.5103 347.969 27.5103C351.822 27.5103 353.266 30.0648 353.542 32.0671L361.176 30.341C360.763 26.6818 357.53 20.5371 347.901 20.5371C340.61 20.5371 335.246 25.5772 335.246 31.6527C335.246 36.4166 338.202 40.3521 344.737 41.8019L349.208 42.8376C351.822 43.3899 352.853 44.6328 352.853 46.1516C352.853 47.9467 351.409 49.5347 348.383 49.5347C344.393 49.5347 342.399 47.0491 342.193 44.3564L334.352 46.0825Z" fill="white"/>
<path d="M375.48 34.6906C375.687 31.5838 378.301 27.9935 383.046 27.9935C388.273 27.9935 390.475 31.3076 390.613 34.6906H375.48ZM391.507 43.5281C390.406 46.5658 388.067 48.7062 383.803 48.7062C379.263 48.7062 375.48 45.4611 375.275 40.9735H399.485C399.485 40.8353 399.622 39.4545 399.622 38.1427C399.622 27.2341 393.364 20.5371 382.909 20.5371C374.243 20.5371 366.264 27.5793 366.264 38.4189C366.264 49.8798 374.448 56.5769 383.734 56.5769C392.056 56.5769 397.422 51.6749 399.141 45.8063L391.507 43.5281Z" fill="white"/>
<path d="M43.8606 76.1256C41.8919 78.6113 37.9002 77.2494 37.8528 74.0756L37.1592 27.6543H68.2915C73.9304 27.6543 77.0753 34.1843 73.569 38.6121L43.8606 76.1256Z" fill="url(#paint0_linear_471_673)"/>
<path d="M43.8606 76.1256C41.8919 78.6113 37.9002 77.2494 37.8528 74.0756L37.1592 27.6543H68.2915C73.9304 27.6543 77.0753 34.1843 73.569 38.6121L43.8606 76.1256Z" fill="url(#paint1_linear_471_673)" fill-opacity="0.2"/>
<path d="M31.1989 1.4293C33.1676 -1.05662 37.1593 0.305481 37.2068 3.47937L37.5107 49.9005H6.76804C1.12897 49.9005 -2.01604 43.3706 1.4905 38.9428L31.1989 1.4293Z" fill="#3ECF8E"/>
</g>
<defs>
<linearGradient id="paint0_linear_471_673" x1="37.1592" y1="37.9471" x2="64.8501" y2="49.5303" gradientUnits="userSpaceOnUse">
<stop stop-color="#249361"/>
<stop offset="1" stop-color="#3ECF8E"/>
</linearGradient>
<linearGradient id="paint1_linear_471_673" x1="24.8921" y1="21.1073" x2="37.5621" y2="44.8959" gradientUnits="userSpaceOnUse">
<stop/>
<stop offset="1" stop-opacity="0"/>
</linearGradient>
<clipPath id="clip0_471_673">
<rect width="400" height="78" fill="white"/>
</clipPath>
</defs>
</svg>
