<svg width="397" height="101" viewBox="0 0 397 101" fill="none" xmlns="http://www.w3.org/2000/svg">
<path fill-rule="evenodd" clip-rule="evenodd" d="M153.686 26L140.578 45.244L127.392 26H116.936L135.194 51.869L116 79H126.455L140.578 58.5729L154.545 79H165L145.806 51.869L164.064 26H153.686Z" fill="white"/>
<path fill-rule="evenodd" clip-rule="evenodd" d="M194.249 32.9137C198.11 32.9137 201.105 34.1799 203.154 36.6331C205.124 39.0072 206.228 42.4892 206.306 46.9209H180.694C181.166 42.6475 182.585 39.2446 184.792 36.7914C187.156 34.1799 190.308 32.9137 194.249 32.9137ZM194.327 25C187.235 25 181.482 27.5324 177.305 32.5971C173.128 37.5827 171 44.4676 171 52.9353C171 61.4029 173.285 68.0504 177.778 72.7986C182.27 77.5468 188.574 80 196.377 80C199.923 80 202.918 79.7626 205.44 79.2086C207.961 78.6547 210.641 77.7842 213.399 76.5971L213.793 76.4388V67.9712L212.848 68.3669C207.489 70.6619 202.051 71.8489 196.613 71.8489C191.569 71.8489 187.55 70.3453 184.792 67.3381C182.112 64.4101 180.615 60.1367 180.378 54.5971H216V48.9784C216 41.8561 214.03 36 210.168 31.6475C206.306 27.2158 200.947 25 194.327 25Z" fill="white"/>
<path fill-rule="evenodd" clip-rule="evenodd" d="M253.372 25C249.702 25 246.271 25.7116 243.319 27.1347C240.686 28.3997 238.452 30.1391 236.856 32.3529L235.66 25.8697H228V79H237.255V51.1698C237.255 44.6076 238.452 39.8638 240.926 37.0966C243.319 34.3294 247.229 32.9063 252.415 32.9063C256.324 32.9063 259.197 33.8551 261.032 35.8316C262.867 37.8082 263.745 40.8126 263.745 44.8448V79H273V44.5286C273 37.7291 271.324 32.7482 268.053 29.5857C264.782 26.5813 259.835 25 253.372 25Z" fill="white"/>
<path fill-rule="evenodd" clip-rule="evenodd" d="M308.184 72.0668C303.673 72.0668 300.35 70.4802 298.056 67.3069C295.761 64.0543 294.574 59.1357 294.574 52.7098C294.574 46.3633 295.761 41.3653 298.135 37.8747C300.429 34.4635 303.753 32.7975 308.184 32.7975C313.327 32.7975 317.045 34.3048 319.34 37.2401C321.714 40.2547 322.901 45.4113 322.901 52.5511V54.2171C322.901 60.5637 321.714 65.1649 319.419 67.9415C317.045 70.7182 313.327 72.0668 308.184 72.0668ZM322.742 25.8163L322.901 29.4656L323.138 31.8455C319.34 27.1649 313.96 24.785 307.155 24.785C300.192 24.785 294.732 27.2443 290.855 32.1628C286.978 37.0021 285 43.8246 285 52.5511C285 61.1983 286.978 68.0209 290.776 72.7808C294.653 77.5407 300.192 80 307.155 80C314.197 80 319.657 77.5407 323.375 72.6221L324.325 79.048H332V4H322.822L322.742 25.8163Z" fill="white"/>
<path fill-rule="evenodd" clip-rule="evenodd" d="M352 6C350.582 6 349.388 6.48322 348.418 7.44966C347.448 8.41611 347 9.94631 347 11.9597C347 13.9732 347.448 15.4228 348.418 16.4698C349.388 17.5168 350.582 18 352 18C353.343 18 354.537 17.5168 355.507 16.4698C356.478 15.4228 357 13.9732 357 11.9597C357 9.94631 356.478 8.49664 355.507 7.44966C354.537 6.48322 353.343 6 352 6Z" fill="white"/>
<path fill-rule="evenodd" clip-rule="evenodd" d="M347 79H357V26H347V79Z" fill="white"/>
<path fill-rule="evenodd" clip-rule="evenodd" d="M396.133 71.2369C395.424 71.4737 394.399 71.6316 393.138 71.8684C391.877 72.0263 390.616 72.1842 389.197 72.1842C386.833 72.1842 384.941 71.4737 383.601 69.8947C382.261 68.3947 381.552 66.1053 381.552 63.1842V33.4211H396.527V26H381.552V14H375.877L372.488 25.2105L365 28.5263V33.4211H372.409V63.5C372.409 74.3947 377.69 80 388.094 80C389.434 80 390.931 79.8421 392.665 79.6053C394.399 79.2895 395.66 78.9737 396.606 78.5L397 78.3421V71L396.133 71.2369Z" fill="white"/>
<path d="M57.2752 0H29.0801L0 50.3845L29.0801 100.769L34.8329 90.8438L11.5056 50.3845L34.8329 9.98839H51.5224L57.2752 0Z" fill="#446CB3"/>
<path d="M37.4248 34.2007L43.1144 24.3387L34.8329 9.98828L29.0801 19.8502L37.4248 34.2007Z" fill="#D24D57"/>
<path d="M70.0451 9.98828L75.7979 19.9135L34.8329 90.8437L29.0801 80.9185L70.0451 9.98828Z" fill="#D24D57"/>
<path d="M47.666 100.769L53.3556 90.8438H70.0451L93.3724 50.3845L70.0451 9.98839L75.7979 0L104.878 50.3845L75.7979 100.769H47.666Z" fill="#446CB3"/>
<path d="M67.327 66.3789L61.5742 76.3041L70.0454 90.8442L75.7982 80.9822L67.327 66.3789Z" fill="#D24D57"/>
</svg>
